<svg width="193" height="71" viewBox="0 0 193 71" fill="none" xmlns="http://www.w3.org/2000/svg">
<path d="M8.45263 13.686L3.15741 16.7334L6.20476 22.0287L11.5 18.9813L8.45263 13.686Z" fill="#E30613"/>
<path d="M21.5 5.71328V34.8484H28.4071V19.9538C28.4038 19.7248 28.4459 19.4977 28.5307 19.2873C28.6154 19.0769 28.7409 18.8878 28.899 18.7325C29.0518 18.5713 29.2331 18.4439 29.4325 18.3578C29.6318 18.2717 29.8453 18.2286 30.0604 18.2309H38.7643V5.71328H21.5ZM31.8777 16.4354H30.0604C29.4803 16.4315 28.9096 16.5921 28.4071 16.9007V7.45064H31.8777V16.4354Z" fill="#E30613"/>
<path d="M43.3052 34.8484V23.9713H50.7848V33.0747H54.5247V20.116C54.5313 19.8881 54.4902 19.6612 54.404 19.4495C54.3178 19.2377 54.1884 19.0454 54.0235 18.8845C53.8675 18.7098 53.6739 18.5711 53.4566 18.4786C53.2393 18.3861 53.0038 18.342 52.7669 18.3495H43.365L43.4099 5.71328H50.8895V16.5831H52.9016C53.517 16.5888 54.1212 16.745 54.6593 17.0375V5.71328H62.139L62.1165 34.8484H43.3052Z" fill="#E30613"/>
<path d="M66.6798 34.8194V5.71328H83.9441V13.135H77.0425V7.47794H73.5746V33.0547H77.0425V23.9554H83.9441V34.8484L66.6798 34.8194Z" fill="#E30613"/>
<path d="M119.439 5.71328H126.32V13.1382H117.616C117.398 13.1296 117.181 13.1732 116.981 13.2658C116.781 13.3584 116.603 13.4976 116.46 13.6732C116.303 13.8301 116.178 14.0198 116.093 14.2304C116.007 14.4409 115.964 14.668 115.964 14.8973C115.955 15.129 115.995 15.3599 116.08 15.5731C116.166 15.7862 116.296 15.9761 116.46 16.1287C116.773 16.4415 117.186 16.6169 117.616 16.6197H126.32L126.293 34.8484H119.412V18.3568H117.602C117.025 18.3577 116.457 18.2039 115.951 17.9097L115.937 34.8484H109.056L109.097 5.72062H115.978V11.8335C116.474 11.5075 117.047 11.3373 117.63 11.3424H119.439V5.71328Z" fill="#E30613"/>
<path d="M142.151 5.71328H149.695V34.8484H142.151V16.8788C141.67 17.356 141.09 17.7277 140.45 17.9692C139.785 18.2255 139.075 18.3538 138.36 18.3472V34.8484H130.861V5.71328H138.398V16.6171C138.9 16.6265 139.398 16.5345 139.862 16.3468C140.325 16.1591 140.744 15.8799 141.091 15.5268C141.442 15.1858 141.72 14.78 141.909 14.3331C142.097 13.8863 142.192 13.4074 142.188 12.9244L142.151 5.71328Z" fill="#E30613"/>
<path d="M164.605 5.86219H171.5V34.8484H164.605V16.9707C164.161 17.444 163.629 17.8136 163.042 18.0555C162.434 18.3111 161.785 18.4389 161.13 18.4316V34.8484H154.236V5.86219H161.13V16.7103C161.59 16.7205 162.046 16.6294 162.47 16.4426C162.895 16.2558 163.278 15.9776 163.595 15.6255C163.917 15.2868 164.173 14.8834 164.346 14.4388C164.52 13.9942 164.608 13.5175 164.605 13.0364V5.86219ZM162.83 4.48807C162.605 4.49244 162.382 4.44639 162.175 4.35291C161.968 4.25944 161.782 4.12064 161.629 3.94567C161.468 3.77647 161.341 3.57462 161.255 3.35219C161.17 3.12976 161.127 2.89133 161.13 2.65114C161.13 2.41499 161.174 2.18119 161.26 1.96311C161.346 1.74503 161.471 1.547 161.629 1.38036C161.787 1.21371 161.974 1.08175 162.18 0.992046C162.387 0.902338 162.607 0.85664 162.83 0.857592C163.056 0.854305 163.281 0.89864 163.491 0.988029C163.7 1.07742 163.891 1.21006 164.052 1.37828C164.217 1.54054 164.348 1.73773 164.436 1.95702C164.524 2.17631 164.568 2.4128 164.564 2.65114C164.561 3.13716 164.377 3.60221 164.052 3.94589C163.728 4.28957 163.289 4.48429 162.83 4.48807Z" fill="#E30613"/>
<path d="M87.7025 34.8284V5.72227H104.967V13.144H98.0652V7.48693H94.5973V33.0637H98.0652V23.9644H104.967V34.8574L87.7025 34.8284Z" fill="#E30613"/>
<path d="M186.795 13.686L181.5 16.7334L184.547 22.0287L189.843 18.9813L186.795 13.686Z" fill="#E30613"/>
<path d="M17.6967 42.8574V70.8574H0.5V60.3758H7.37188V69.1314H10.8112V55.0022H7.35829V53.3041H10.8112V44.5485H7.35829V49.9989H0.5V42.8574H17.6967Z" fill="#E30613"/>
<path d="M39.0898 49.9971V44.555H35.3977V70.8574H28.1356V44.555H24.4867V49.9971H20.8233V42.8574H42.71V49.9971H39.0898Z" fill="#E30613"/>
<path d="M56.5601 42.8574H63.4333V70.8574H56.5601V54.9991H53.0963V70.8574H46.2367V42.8574H53.1099V53.3365H56.5737L56.5601 42.8574Z" fill="#E30613"/>
<path d="M66.96 42.8574H84.1567V70.8574H66.96V42.8574ZM73.8346 69.1598H77.2889V44.555H73.8346V69.1598Z" fill="#E30613"/>
<path d="M87.6833 70.8295V42.8574H104.88V49.99H98.0054V44.5533H94.5511V69.1336H98.0054V60.3888H104.88V70.8574L87.6833 70.8295Z" fill="#E30613"/>
<path d="M115.274 70.8574H108.407V42.8574H125.603V70.8574H118.736V44.555H115.274V70.8574Z" fill="#E30613"/>
<path d="M130.13 42.8574H147.327V70.8574H130.13V42.8574ZM137.005 69.1598H140.459V44.555H137.005V69.1598Z" fill="#E30613"/>
<path d="M158.721 70.8574H151.853V42.8574H169.05V54.9991H160.373C159.938 55.0081 159.523 55.1898 159.215 55.5062C158.907 55.8227 158.73 56.2493 158.721 56.6967V70.8574ZM158.721 44.555V53.7487C159.224 53.4536 159.794 53.3017 160.373 53.3085H162.175V44.555H158.721Z" fill="#E30613"/>
<path d="M189.138 49.9971V44.555H185.71V70.8574H178.967V44.555H175.578V49.9971H172.177V42.8574H192.5V49.9971H189.138Z" fill="#E30613"/>
</svg>
