<svg width="221" height="100" viewBox="0 0 221 100" fill="none" xmlns="http://www.w3.org/2000/svg">
<rect width="220" height="100" transform="translate(0.0390625)" fill="white"/>
<path d="M139.212 33.2074C139.173 32.3266 138.796 31.4948 138.159 30.8855C137.522 30.2762 136.674 29.9366 135.792 29.9374C135.386 29.9407 134.983 30.0152 134.602 30.1574C134.622 29.9613 134.622 29.7636 134.602 29.5674C134.605 28.5608 134.309 27.5761 133.751 26.7378C133.194 25.8994 132.401 25.2451 131.472 24.8575C130.543 24.4695 129.52 24.365 128.532 24.5574C127.546 24.7584 126.639 25.2413 125.922 25.9474C125.318 23.8265 123.967 21.9956 122.118 20.7924C120.27 19.5893 118.049 19.095 115.865 19.4008C113.681 19.7065 111.681 20.7917 110.234 22.4561C108.787 24.1206 107.991 26.252 107.992 28.4574V29.0974C107.456 28.66 106.834 28.3409 106.166 28.1612C105.498 27.9815 104.8 27.9452 104.117 28.0548C103.434 28.1644 102.782 28.4173 102.204 28.7969C101.625 29.1765 101.134 29.6743 100.762 30.2574C100.269 31.0395 100.003 31.9429 99.9922 32.8674V33.5074C99.9948 35.1483 100.648 36.7212 101.808 37.8815C102.968 39.0418 104.541 39.6948 106.182 39.6974H132.992C133.806 39.7001 134.613 39.5418 135.366 39.2318C136.118 38.9218 136.802 38.4661 137.379 37.8909C137.955 37.3157 138.411 36.6323 138.723 35.8801C139.034 35.1278 139.193 34.3215 139.192 33.5074V33.1974L139.212 33.2074Z" stroke="#DD0A15" stroke-width="1.57" stroke-miterlimit="10" stroke-linejoin="round"/>
<path d="M22.5084 36.0109C21.5751 36.0087 20.6733 36.3483 19.9733 36.9655C19.2732 37.5826 18.8233 38.4348 18.7084 39.361C18.6027 38.4249 18.1556 37.5606 17.4528 36.9334C16.7499 36.3061 15.8405 35.9599 14.8984 35.9609" stroke="#DD0A15" stroke-width="1.57" stroke-linecap="round" stroke-linejoin="round"/>
<path d="M78.5084 30.0109C77.5751 30.0087 76.6733 30.3483 75.9733 30.9655C75.2732 31.5826 74.8233 32.4348 74.7084 33.361C74.6027 32.4249 74.1556 31.5606 73.4528 30.9334C72.7499 30.3061 71.8405 29.9599 70.8984 29.9609" stroke="#DD0A15" stroke-width="1.57" stroke-linecap="round" stroke-linejoin="round"/>
<path d="M99.1 88.0408C99.0138 87.2549 98.6406 86.5284 98.052 86.0007C97.4633 85.4729 96.7006 85.1809 95.91 85.1807C95.4751 85.1852 95.0459 85.2806 94.65 85.4607C95.0262 84.5613 95.0931 83.5623 94.84 82.6207C94.6437 81.8604 94.2424 81.1687 93.68 80.6207C93.1217 80.0824 92.4322 79.6997 91.68 79.5107C90.9217 79.3272 90.1278 79.3511 89.3819 79.5798C88.6359 79.8085 87.9652 80.2337 87.44 80.8107C87.1428 79.6408 86.4324 78.6178 85.44 77.9307C84.6882 77.4101 83.8104 77.1012 82.8983 77.0363C81.9862 76.9714 81.0735 77.1529 80.2556 77.5619C79.4377 77.9708 78.7448 78.5921 78.2495 79.3607C77.7541 80.1293 77.4745 81.017 77.44 81.9307V82.1907C76.7976 82.2362 76.1714 82.4133 75.6003 82.7109C75.0292 83.0085 74.5253 83.4203 74.12 83.9208C73.7117 84.4179 73.4089 84.9929 73.23 85.6108C73.0522 86.2308 72.9978 86.8797 73.07 87.5207C73.07 88.4307 73.9 91.5907 76.76 91.5907H95.59C96.0557 91.5904 96.5171 91.5022 96.95 91.3307C97.3828 91.1515 97.7768 90.89 98.11 90.5607C98.4338 90.2288 98.6888 89.8362 98.8604 89.4055C99.032 88.9748 99.1169 88.5144 99.11 88.0508L99.1 88.0408Z" stroke="#DD0A15" stroke-width="1.57" stroke-linecap="round" stroke-linejoin="round"/>
<path d="M116.263 84.7128C116.262 83.0641 115.668 81.4706 114.591 80.2226C113.513 78.9745 112.024 78.1549 110.393 77.9128C110.235 76.1901 109.503 74.5704 108.314 73.3136C107.125 72.0567 105.549 71.2356 103.837 70.9819C102.126 70.7282 100.379 71.0566 98.8768 71.9145C97.3746 72.7724 96.204 74.11 95.5529 75.7128C94.7982 75.1766 93.9366 74.8096 93.0271 74.637C92.1176 74.4644 91.1815 74.4903 90.2828 74.7128C89.3868 74.9426 88.5506 75.3625 87.8311 75.944C87.1116 76.5255 86.5256 77.2549 86.1129 78.0828H85.8828V78.1928C86.6303 78.8747 87.1534 79.7673 87.3828 80.7528C87.9155 80.144 88.6085 79.6971 89.3828 79.4628C90.1911 79.2221 91.0512 79.2166 91.8624 79.4469C92.6737 79.6772 93.4026 80.1338 93.9639 80.7632C94.5251 81.3927 94.8955 82.1689 95.0317 83.0012C95.1679 83.8335 95.0642 84.6873 94.7328 85.4628C95.1322 85.2836 95.5651 85.1915 96.0028 85.1928C96.7934 85.193 97.5561 85.485 98.1448 86.0127C98.7334 86.5405 99.1066 87.267 99.1928 88.0528C99.1918 88.5184 99.1036 88.9797 98.9329 89.4128C98.5717 90.2813 97.8813 90.9716 97.0128 91.3328C96.5797 91.5036 96.1184 91.5918 95.6528 91.5928H109.653C111.442 91.5902 113.158 90.8781 114.423 89.6128C115.688 88.3475 116.4 86.6322 116.403 84.8428C116.403 84.8428 116.263 84.7828 116.263 84.7128Z" stroke="#DD0A15" stroke-width="1.57" stroke-linecap="round" stroke-linejoin="round"/>
<path d="M42.9922 91.6172V45.6172" stroke="#DD0A15" stroke-width="1.57" stroke-linecap="round" stroke-linejoin="round"/>
<path d="M55.0565 79.5281C49.4765 78.8381 44.8966 76.0381 42.9766 72.3281" stroke="#DD0A15" stroke-width="1.57" stroke-linecap="round" stroke-linejoin="round"/>
<path d="M52.8775 70.2581C48.2875 69.6781 44.5175 67.3781 42.9375 64.3281" stroke="#DD0A15" stroke-width="1.57" stroke-linecap="round" stroke-linejoin="round"/>
<path d="M51.5665 62.0781C47.7065 61.5981 44.5666 59.6681 43.2266 57.0781" stroke="#DD0A15" stroke-width="1.57" stroke-linecap="round" stroke-linejoin="round"/>
<path d="M49.3466 55.7572C46.5166 55.4072 44.1966 53.9972 43.2266 52.1172" stroke="#DD0A15" stroke-width="1.57" stroke-linecap="round" stroke-linejoin="round"/>
<path d="M47.1484 49.2891C46.311 49.1797 45.5119 48.8711 44.8184 48.389C44.1203 47.9166 43.5472 47.2818 43.1484 46.5391" stroke="#DD0A15" stroke-width="1.57" stroke-linecap="round" stroke-linejoin="round"/>
<path d="M30.9766 79.5281C36.5666 78.8381 41.1365 76.0381 43.0565 72.3281" stroke="#DD0A15" stroke-width="1.57" stroke-linecap="round" stroke-linejoin="round"/>
<path d="M33.1172 70.2581C37.7172 69.6781 41.4772 67.3781 43.0572 64.3281" stroke="#DD0A15" stroke-width="1.57" stroke-linecap="round" stroke-linejoin="round"/>
<path d="M34.4766 62.0781C38.3266 61.5981 41.4765 59.6681 42.8065 57.0781" stroke="#DD0A15" stroke-width="1.57" stroke-linecap="round" stroke-linejoin="round"/>
<path d="M36.7031 55.7572C39.5231 55.4072 41.8431 53.9972 42.8131 52.1172" stroke="#DD0A15" stroke-width="1.57" stroke-linecap="round" stroke-linejoin="round"/>
<path d="M38.8828 49.2891C39.7184 49.1762 40.5158 48.8685 41.2106 48.3908C41.9054 47.9131 42.4782 47.2788 42.8828 46.5391" stroke="#DD0A15" stroke-width="1.57" stroke-linecap="round" stroke-linejoin="round"/>
<mask id="mask0_1273_4217" style="mask-type:luminance" maskUnits="userSpaceOnUse" x="150" y="43" width="51" height="49">
<path d="M200.548 43.3125H150.148V91.6225H200.548V43.3125Z" fill="white"/>
</mask>
<g mask="url(#mask0_1273_4217)">
<path d="M163.11 87.7209C163.482 87.7209 163.846 87.6107 164.155 87.4041C164.464 87.1975 164.705 86.9039 164.847 86.5604C164.99 86.2168 165.027 85.8389 164.954 85.4742C164.882 85.1095 164.703 84.7745 164.44 84.5116C164.177 84.2487 163.842 84.0696 163.477 83.9971C163.113 83.9245 162.735 83.9618 162.391 84.1041C162.047 84.2463 161.754 84.4873 161.547 84.7964C161.341 85.1056 161.23 85.4691 161.23 85.8409C161.23 86.3395 161.428 86.8177 161.781 87.1703C162.134 87.5228 162.612 87.7209 163.11 87.7209Z" stroke="#DD0A15" stroke-width="1.57" stroke-miterlimit="10"/>
<path d="M163.109 90.8418C164.098 90.8418 165.065 90.5486 165.887 89.9991C166.709 89.4497 167.35 88.6688 167.729 87.7552C168.107 86.8416 168.206 85.8362 168.013 84.8663C167.82 83.8964 167.344 83.0055 166.645 82.3063C165.946 81.607 165.055 81.1308 164.085 80.9379C163.115 80.7449 162.11 80.844 161.196 81.2224C160.282 81.6009 159.501 82.2417 158.952 83.064C158.403 83.8862 158.109 84.8529 158.109 85.8418C158.109 87.1679 158.636 88.4396 159.574 89.3773C160.511 90.315 161.783 90.8418 163.109 90.8418Z" stroke="#DD0A15" stroke-width="1.57" stroke-miterlimit="10"/>
<path d="M189.118 87.7209C189.49 87.7209 189.854 87.6107 190.163 87.4041C190.472 87.1975 190.713 86.9039 190.855 86.5604C190.998 86.2168 191.035 85.8389 190.962 85.4742C190.89 85.1095 190.711 84.7745 190.448 84.5116C190.185 84.2487 189.85 84.0696 189.485 83.9971C189.12 83.9245 188.742 83.9618 188.399 84.1041C188.055 84.2463 187.762 84.4873 187.555 84.7964C187.349 85.1056 187.238 85.4691 187.238 85.8409C187.238 86.3395 187.436 86.8177 187.789 87.1703C188.142 87.5228 188.62 87.7209 189.118 87.7209Z" stroke="#DD0A15" stroke-width="1.57" stroke-miterlimit="10"/>
<path d="M189.121 90.8418C190.11 90.8418 191.077 90.5486 191.899 89.9991C192.721 89.4497 193.362 88.6688 193.74 87.7552C194.119 86.8416 194.218 85.8362 194.025 84.8663C193.832 83.8964 193.356 83.0055 192.657 82.3063C191.957 81.607 191.066 81.1308 190.097 80.9379C189.127 80.7449 188.121 80.844 187.208 81.2224C186.294 81.6009 185.513 82.2417 184.964 83.064C184.414 83.8862 184.121 84.8529 184.121 85.8418C184.121 87.1679 184.648 88.4396 185.586 89.3773C186.523 90.315 187.795 90.8418 189.121 90.8418Z" stroke="#DD0A15" stroke-width="1.57" stroke-miterlimit="10"/>
<path d="M161.438 74.6113H168.648V64.0312H157.938V71.0312C157.93 71.4967 158.015 71.9591 158.188 72.3912C158.364 72.8236 158.622 73.2177 158.948 73.5513C159.272 73.8852 159.66 74.1505 160.088 74.3312C160.515 74.5129 160.974 74.6081 161.438 74.6113Z" stroke="#DD0A15" stroke-width="1.57" stroke-miterlimit="10"/>
<path d="M166.941 74.6211H189.651" stroke="#DD0A15" stroke-width="1.57" stroke-miterlimit="10"/>
<path d="M177.891 74.5815L175.891 70.0215" stroke="#DD0A15" stroke-width="1.57" stroke-linecap="round" stroke-linejoin="round"/>
<path d="M150.988 75.6016H151.888C152.111 75.6002 152.332 75.6437 152.538 75.7296C152.744 75.8155 152.931 75.9421 153.087 76.1017C153.242 76.2613 153.365 76.4507 153.446 76.6586C153.527 76.8665 153.565 77.0885 153.558 77.3116V79.2116C153.558 79.4305 153.517 79.6475 153.438 79.8516C153.348 80.05 153.227 80.2324 153.078 80.3916C152.92 80.5464 152.733 80.6687 152.528 80.7516C152.325 80.8349 152.108 80.879 151.888 80.8816H150.988V75.6016Z" stroke="#DD0A15" stroke-width="1.57" stroke-miterlimit="10"/>
<path d="M199.269 81.7117H198.369C197.927 81.7102 197.503 81.5341 197.189 81.2217C197.034 81.0671 196.91 80.8833 196.826 80.6808C196.742 80.4782 196.699 80.261 196.699 80.0417V78.1017C196.697 77.8821 196.739 77.6642 196.823 77.4613C196.907 77.2585 197.032 77.0749 197.189 76.9217C197.343 76.7653 197.527 76.6412 197.73 76.557C197.932 76.4729 198.15 76.4302 198.369 76.4317H199.269V81.7117Z" stroke="#DD0A15" stroke-width="1.57" stroke-miterlimit="10"/>
<path d="M194.11 85.7913H197.86C198.114 85.7908 198.365 85.7397 198.6 85.6413C198.831 85.5415 199.041 85.3991 199.22 85.2213C199.394 85.042 199.533 84.8318 199.63 84.6013C199.726 84.3701 199.773 84.1216 199.77 83.8712V76.5413C199.773 76.2878 199.725 76.0362 199.63 75.8013C199.53 75.5725 199.391 75.3627 199.22 75.1812C199.041 75.0035 198.831 74.861 198.6 74.7613C198.363 74.6706 198.113 74.6232 197.86 74.6212H189.86C189.234 74.6218 188.623 74.4298 188.11 74.0713C187.595 73.7133 187.201 73.2077 186.98 72.6212L184.4 65.7913C184.209 65.2701 183.859 64.8222 183.4 64.5113C182.944 64.1979 182.403 64.0305 181.85 64.0313H152.85C152.597 64.03 152.347 64.0787 152.113 64.1747C151.88 64.2707 151.668 64.4121 151.489 64.5907C151.311 64.7692 151.169 64.9814 151.073 65.2149C150.977 65.4485 150.928 65.6988 150.93 65.9513V83.8613C150.929 84.1121 150.979 84.3605 151.075 84.5923C151.171 84.824 151.312 85.0344 151.49 85.2113C151.85 85.5738 152.339 85.7788 152.85 85.7813H158.12" stroke="#DD0A15" stroke-width="1.57" stroke-miterlimit="10"/>
<path d="M168.379 85.7812H183.889" stroke="#DD0A15" stroke-width="1.57" stroke-miterlimit="10"/>
<path d="M173.648 79.1621H174.648" stroke="#DD0A15" stroke-width="1.57" stroke-linecap="round" stroke-linejoin="round"/>
<path d="M187.719 77.8008V76.8008" stroke="#DD0A15" stroke-width="1.57" stroke-linecap="round" stroke-linejoin="round"/>
<path d="M190.719 77.8008V76.8008" stroke="#DD0A15" stroke-width="1.57" stroke-linecap="round" stroke-linejoin="round"/>
<path d="M174.471 48.6016H160.411C159.756 48.6016 159.128 48.8618 158.665 49.325C158.202 49.7882 157.941 50.4164 157.941 51.0715V58.4615C157.944 59.1158 158.205 59.7426 158.668 60.2052C159.13 60.6678 159.757 60.9289 160.411 60.9315H174.471C175.126 60.9289 175.752 60.6678 176.215 60.2052C176.678 59.7426 176.939 59.1158 176.941 58.4615V51.0715C176.941 50.4164 176.681 49.7882 176.218 49.325C175.755 48.8618 175.127 48.6016 174.471 48.6016Z" stroke="#DD0A15" stroke-width="1.57" stroke-linecap="round" stroke-linejoin="round"/>
<path d="M172.441 48.6016H162.441V60.9315H172.441V48.6016Z" stroke="#DD0A15" stroke-width="1.57" stroke-linecap="round" stroke-linejoin="round"/>
<path d="M172.441 60.9316H162.441V64.0417H172.441V60.9316Z" stroke="#DD0A15" stroke-width="1.57" stroke-linecap="round" stroke-linejoin="round"/>
<path d="M166.151 44.1016H168.711C169.27 44.1042 169.805 44.3273 170.2 44.7225C170.595 45.1176 170.818 45.6528 170.821 46.2115V48.6016H164.051V46.2115C164.049 45.9349 164.103 45.6608 164.208 45.4048C164.313 45.1489 164.467 44.9162 164.662 44.7202C164.857 44.5241 165.089 44.3685 165.345 44.2623C165.6 44.1562 165.874 44.1016 166.151 44.1016Z" stroke="#DD0A15" stroke-width="1.57" stroke-linecap="round" stroke-linejoin="round"/>
</g>
<path d="M220.039 92.4609H0.0390625" stroke="#DD0A15" stroke-width="1.57" stroke-miterlimit="10"/>
</svg>
