<svg width="221" height="100" viewBox="0 0 221 100" fill="none" xmlns="http://www.w3.org/2000/svg">
<rect width="220" height="100" transform="translate(0.09375)" fill="white"/>
<path d="M153.253 33.2075C153.233 32.3337 152.874 31.5019 152.253 30.8874C151.791 30.4413 151.213 30.1357 150.584 30.0064C149.955 29.8771 149.303 29.9295 148.703 30.1575C148.713 29.9609 148.713 29.764 148.703 29.5674C148.705 28.5608 148.409 27.5761 147.852 26.7378C147.295 25.8994 146.502 25.2451 145.573 24.8575C144.644 24.4695 143.621 24.3651 142.633 24.5574C141.647 24.7584 140.74 25.2413 140.023 25.9474C139.418 23.8257 138.066 21.9942 136.217 20.7911C134.368 19.588 132.146 19.0944 129.961 19.4015C127.776 19.7085 125.776 20.7955 124.33 22.4618C122.884 24.1281 122.089 26.2612 122.093 28.4675V29.1075C121.378 28.5185 120.511 28.144 119.593 28.0275C118.674 27.9191 117.742 28.0679 116.903 28.4575C116.08 28.8577 115.387 29.4815 114.903 30.2574C114.408 31.0424 114.141 31.9496 114.133 32.8774V33.5174C114.13 34.3318 114.294 35.1382 114.613 35.8874C115.08 37.0177 115.872 37.984 116.888 38.664C117.905 39.344 119.1 39.7071 120.323 39.7075H147.133C147.946 39.7088 148.752 39.5496 149.503 39.2389C150.255 38.9283 150.938 38.4725 151.513 37.8974C152.088 37.3223 152.544 36.6394 152.854 35.8878C153.165 35.1362 153.324 34.3307 153.323 33.5174V33.2075H153.253Z" stroke="#DD0A15" stroke-width="1.57" stroke-miterlimit="10" stroke-linejoin="round"/>
<path d="M215.508 30.0097C214.575 30.0075 213.673 30.3471 212.973 30.9642C212.273 31.5814 211.823 32.4335 211.708 33.3597C211.607 32.423 211.161 31.5573 210.458 30.9297C209.757 30.2928 208.846 29.9367 207.898 29.9297" stroke="#DD0A15" stroke-width="1.57" stroke-linecap="round" stroke-linejoin="round"/>
<path d="M205.508 23.0097C204.575 23.0075 203.673 23.3471 202.973 23.9642C202.273 24.5814 201.823 25.4335 201.708 26.3597C201.607 25.423 201.161 24.5573 200.458 23.9297C199.757 23.2928 198.846 22.9367 197.898 22.9297" stroke="#DD0A15" stroke-width="1.57" stroke-linecap="round" stroke-linejoin="round"/>
<path d="M62.7584 32.3616C61.8209 32.3731 60.9204 32.7291 60.2284 33.3616C59.5284 33.9814 59.0772 34.8341 58.9585 35.7615C58.855 34.8236 58.4089 33.9569 57.7058 33.3276C57.0027 32.6983 56.092 32.3508 55.1484 32.3516" stroke="#DD0A15" stroke-width="1.57" stroke-linecap="round" stroke-linejoin="round"/>
<path d="M77.0391 91.6172V45.6172" stroke="#DD0A15" stroke-width="1.57" stroke-linecap="round" stroke-linejoin="round"/>
<path d="M89.119 79.5281C83.529 78.8381 78.9591 76.0381 77.0391 72.3281" stroke="#DD0A15" stroke-width="1.57" stroke-linecap="round" stroke-linejoin="round"/>
<path d="M86.979 70.2581C82.389 69.6781 78.6191 67.3781 77.0391 64.3281" stroke="#DD0A15" stroke-width="1.57" stroke-linecap="round" stroke-linejoin="round"/>
<path d="M85.6525 62.0781C81.7925 61.5981 78.6525 59.6681 77.3125 57.0781" stroke="#DD0A15" stroke-width="1.57" stroke-linecap="round" stroke-linejoin="round"/>
<path d="M83.399 55.7493C80.579 55.3993 78.2591 53.9894 77.2891 52.1094" stroke="#DD0A15" stroke-width="1.57" stroke-linecap="round" stroke-linejoin="round"/>
<path d="M81.2031 49.2891C80.3675 49.1762 79.5701 48.8685 78.8752 48.3908C78.1804 47.9131 77.6077 47.2788 77.2031 46.5391" stroke="#DD0A15" stroke-width="1.57" stroke-linecap="round" stroke-linejoin="round"/>
<path d="M65.0391 79.5281C70.6191 78.8381 75.199 76.0381 77.119 72.3281" stroke="#DD0A15" stroke-width="1.57" stroke-linecap="round" stroke-linejoin="round"/>
<path d="M67.1797 70.2581C71.7697 69.6781 75.5396 67.3781 77.1196 64.3281" stroke="#DD0A15" stroke-width="1.57" stroke-linecap="round" stroke-linejoin="round"/>
<path d="M68.5234 62.0781C72.3834 61.5981 75.5234 59.6681 76.8634 57.0781" stroke="#DD0A15" stroke-width="1.57" stroke-linecap="round" stroke-linejoin="round"/>
<path d="M70.75 55.7493C73.57 55.3993 75.89 53.9894 76.86 52.1094" stroke="#DD0A15" stroke-width="1.57" stroke-linecap="round" stroke-linejoin="round"/>
<path d="M72.9375 49.2891C73.7731 49.1762 74.5704 48.8685 75.2653 48.3908C75.9601 47.9131 76.5329 47.2788 76.9375 46.5391" stroke="#DD0A15" stroke-width="1.57" stroke-linecap="round" stroke-linejoin="round"/>
<path d="M100.25 91.6212V57.5312" stroke="#DD0A15" stroke-width="1.57" stroke-linecap="round" stroke-linejoin="round"/>
<path d="M109.47 83.4609C105.21 82.9309 101.71 80.8009 100.25 77.9609" stroke="#DD0A15" stroke-width="1.57" stroke-linecap="round" stroke-linejoin="round"/>
<path d="M107.879 76.3582C104.369 75.9182 101.489 74.1581 100.289 71.8281" stroke="#DD0A15" stroke-width="1.57" stroke-linecap="round" stroke-linejoin="round"/>
<path d="M106.797 70.1594C103.857 69.7894 101.447 68.3194 100.438 66.3594" stroke="#DD0A15" stroke-width="1.57" stroke-linecap="round" stroke-linejoin="round"/>
<path d="M105.107 65.29C104.164 65.2258 103.25 64.9396 102.438 64.4547C101.627 63.9699 100.941 63.3001 100.438 62.5" stroke="#DD0A15" stroke-width="1.57" stroke-linecap="round" stroke-linejoin="round"/>
<path d="M103.43 60.3265C102.801 60.2335 102.203 59.9975 101.68 59.6365C101.162 59.2665 100.735 58.7846 100.43 58.2266" stroke="#DD0A15" stroke-width="1.57" stroke-linecap="round" stroke-linejoin="round"/>
<path d="M91.0781 83.4609C95.3481 82.9309 98.8381 80.8009 100.308 77.9609" stroke="#DD0A15" stroke-width="1.57" stroke-linecap="round" stroke-linejoin="round"/>
<path d="M92.7188 76.3582C96.2287 75.9182 99.1088 74.1581 100.319 71.8281" stroke="#DD0A15" stroke-width="1.57" stroke-linecap="round" stroke-linejoin="round"/>
<path d="M93.75 70.1594C96.69 69.7894 99.1 68.3194 100.11 66.3594" stroke="#DD0A15" stroke-width="1.57" stroke-linecap="round" stroke-linejoin="round"/>
<path d="M95.4531 65.2932C96.3927 65.222 97.303 64.9345 98.113 64.4531C98.9296 63.9554 99.6153 63.2696 100.113 62.4531" stroke="#DD0A15" stroke-width="1.57" stroke-linecap="round" stroke-linejoin="round"/>
<path d="M97.1172 60.3265C97.7569 60.2434 98.3679 60.0096 98.8998 59.6446C99.4317 59.2795 99.8695 58.7936 100.177 58.2266" stroke="#DD0A15" stroke-width="1.57" stroke-linecap="round" stroke-linejoin="round"/>
<path d="M187.451 60.5306L186.361 70.2806L191.441 77.2306C191.73 77.632 191.944 78.0827 192.071 78.5606L194.701 88.4306H190.591L187.371 79.8806C187.192 79.4098 186.927 78.976 186.591 78.6006L180.681 72.0906C180.313 71.7527 180.031 71.3308 179.861 70.8606C179.692 70.3869 179.631 69.8812 179.681 69.3806L181.101 56.6506C181.181 56.0026 181.433 55.3877 181.831 54.8706C182.232 54.3536 182.769 53.9588 183.381 53.7306C183.994 53.4995 184.658 53.4407 185.301 53.5606C185.943 53.6782 186.538 53.9726 187.021 54.4106L193.511 60.2506C194.02 60.7022 194.656 60.9852 195.331 61.0606L199.931 61.5406C200.165 61.5406 200.397 61.5867 200.613 61.6761C200.829 61.7656 201.025 61.8967 201.19 62.062C201.355 62.2273 201.486 62.4235 201.576 62.6394C201.665 62.8554 201.711 63.0868 201.711 63.3206C201.711 63.5544 201.665 63.7859 201.576 64.0018C201.486 64.2178 201.355 64.414 201.19 64.5793C201.025 64.7446 200.829 64.8757 200.613 64.9651C200.397 65.0546 200.165 65.1006 199.931 65.1006L199.381 65.0306L193.641 64.2706C193.059 64.2007 192.508 63.9685 192.051 63.6006L186.051 58.8206" stroke="#DD0A15" stroke-width="1.57" stroke-linecap="round" stroke-linejoin="round"/>
<path d="M180.408 74.6094L179.658 79.9194L175.328 85.6993L178.698 88.0994L182.868 82.5994L183.978 78.9293" stroke="#DD0A15" stroke-width="1.57" stroke-linecap="round" stroke-linejoin="round"/>
<path d="M187.448 61.6172C186.767 63.0857 185.718 64.3525 184.401 65.2938C183.085 66.2351 181.547 66.8186 179.938 66.9872" stroke="#DD0A15" stroke-width="1.57" stroke-linecap="round" stroke-linejoin="round"/>
<path d="M185.062 50.4622C185.201 50.8816 185.422 51.2692 185.713 51.6022C186.009 51.932 186.369 52.1974 186.772 52.3821C187.176 52.563 187.611 52.6617 188.052 52.6722C188.495 52.6793 188.934 52.5941 189.342 52.4222C189.749 52.2491 190.115 51.9948 190.42 51.675C190.724 51.3551 190.96 50.9764 191.112 50.5621C191.267 50.1461 191.332 49.7019 191.303 49.2589C191.274 48.8159 191.151 48.3842 190.943 47.9922" stroke="#DD0A15" stroke-width="1.57" stroke-linecap="round" stroke-linejoin="round"/>
<path d="M185.062 50.4581C186.89 49.35 188.872 48.5177 190.943 47.9882L194.612 47.8281" stroke="#DD0A15" stroke-width="1.57" stroke-linecap="round" stroke-linejoin="round"/>
<path d="M191.493 47.8687C191.143 47.086 190.531 46.4495 189.763 46.0688C188.998 45.6799 188.122 45.5669 187.283 45.7487C186.448 45.9381 185.702 46.4031 185.163 47.0688C184.755 47.5809 184.488 48.1908 184.388 48.838C184.288 49.4853 184.359 50.1473 184.593 50.7588" stroke="#DD0A15" stroke-width="1.57" stroke-linecap="round" stroke-linejoin="round"/>
<path d="M190.039 88.5312H194.249C196.789 88.5312 196.919 91.5312 196.919 91.5312L190.209 91.6212L190.039 88.5513" stroke="#DD0A15" stroke-width="1.57" stroke-linecap="round" stroke-linejoin="round"/>
<path d="M175.14 85.6016L177.78 87.6016C179.78 89.1116 178.11 91.6016 178.11 91.6016L173.43 88.1516L175.14 85.6016Z" stroke="#DD0A15" stroke-width="1.57" stroke-linecap="round" stroke-linejoin="round"/>
<path d="M200.094 61.3668V57.2969" stroke="#DD0A15" stroke-width="1.57" stroke-linecap="round" stroke-linejoin="round"/>
<path d="M200.133 91.3516V65.3516" stroke="#DD0A15" stroke-width="1.57" stroke-linecap="round" stroke-linejoin="round"/>
<path d="M181.289 54.6462L180.699 54.1862C180.218 53.9199 179.657 53.8347 179.119 53.9462C178.001 54.165 176.942 54.6146 176.009 55.2662C175.099 55.9805 174.297 56.8225 173.629 57.7662C173.519 58.0149 173.498 58.2937 173.569 58.5562C173.629 58.8232 173.781 59.0606 173.999 59.2262L174.669 59.7662C173.758 61.2238 173.331 62.9316 173.449 64.6462C173.449 67.8962 174.189 68.6462 175.939 68.0862C177.253 67.706 178.589 67.4054 179.939 67.1862" stroke="#DD0A15" stroke-width="1.57" stroke-linecap="round" stroke-linejoin="round"/>
<path d="M171.297 64.7275C171.361 63.6728 171.665 62.6466 172.187 61.7275C172.704 60.8115 173.426 60.0276 174.297 59.4375" stroke="#DD0A15" stroke-width="1.57" stroke-linecap="round" stroke-linejoin="round"/>
<path d="M157.73 85.6378C157.929 85.7181 158.15 85.726 158.355 85.6602C158.559 85.5945 158.734 85.4592 158.85 85.2778C158.969 85.1018 159.022 84.8892 159 84.6778C158.977 84.4657 158.881 84.268 158.73 84.1178L157.43 82.6678C157.028 82.2202 156.469 81.9445 155.87 81.8978L153.93 81.7578" stroke="#DD0A15" stroke-width="1.3" stroke-linecap="round" stroke-linejoin="round"/>
<path d="M137.65 86.6669L134.93 89.6069C134.79 89.7926 134.706 90.0134 134.685 90.2446C134.664 90.4758 134.708 90.7083 134.812 90.9159C134.916 91.1235 135.075 91.2981 135.273 91.4202C135.47 91.5422 135.698 91.6069 135.93 91.6069C136.245 91.5982 136.546 91.4694 136.77 91.2468L139.49 88.3068L140.02 88.2269C141.292 88.0361 142.455 87.3978 143.3 86.4268L144.15 85.4268L148.9 85.0168C149.116 85.2387 149.35 85.4426 149.6 85.6268C150.091 85.7961 150.618 85.8374 151.13 85.7468C151.653 85.6866 152.182 85.7273 152.69 85.8668C153.177 85.9968 153.647 86.1848 154.09 86.4268C154.697 86.8332 155.278 87.2774 155.83 87.7568C155.984 87.8666 156.157 87.9478 156.34 87.9968C156.525 88.0317 156.715 88.0317 156.9 87.9968C157.089 87.9746 157.27 87.9096 157.43 87.8068C157.677 87.6626 157.874 87.4467 157.996 87.1877C158.117 86.9288 158.157 86.639 158.11 86.3569C158.079 86.17 158.015 85.9903 157.92 85.8268C157.82 85.6674 157.691 85.5283 157.54 85.4169L155.66 84.0469C155.355 83.8229 155.018 83.6475 154.66 83.5269L153.42 83.0469" stroke="#DD0A15" stroke-width="1.57" stroke-linecap="round" stroke-linejoin="round"/>
<path d="M153.449 83.0828L153.509 77.5328H154.839C155.347 77.5336 155.837 77.3405 156.209 76.9929C156.585 76.6408 156.81 76.1572 156.839 75.6428V74.7028L154.399 74.1428L154.109 73.4728C153.92 73.025 153.612 72.6375 153.219 72.3528C152.82 72.0737 152.354 71.9047 151.869 71.8629H151.199L151.089 69.6328L150.439 69.9128C150.053 70.0646 149.709 70.3083 149.439 70.6228C149.177 70.9321 148.992 71.2987 148.899 71.6928L147.459 77.8228C147.326 78.4078 147.001 78.9311 146.534 79.3085C146.068 79.6858 145.489 79.8952 144.889 79.9028L142.009 79.9628C140.882 79.9991 139.81 80.4598 139.009 81.2528C138.21 82.0503 137.748 83.1244 137.719 84.2528V86.7328" stroke="#DD0A15" stroke-width="1.57" stroke-linecap="round" stroke-linejoin="round"/>
<path d="M138.88 75.4611C138.468 75.4172 138.052 75.4651 137.66 75.6011C137.281 75.7476 136.94 75.9764 136.66 76.2711C136.367 76.5658 136.148 76.9256 136.02 77.3211C135.888 77.7169 135.851 78.1381 135.91 78.5511C135.962 78.9643 136.113 79.3589 136.35 79.7011C136.584 80.0448 136.891 80.3319 137.25 80.5411C137.611 80.7502 138.015 80.8734 138.43 80.9011C138.844 80.9303 139.258 80.8618 139.64 80.7011" stroke="#DD0A15" stroke-width="1.57" stroke-linecap="round" stroke-linejoin="round"/>
<path d="M48.2271 83.1769C48.2388 82.342 47.9984 81.523 47.5372 80.8269C47.0804 80.1323 46.4304 79.5866 45.6672 79.2569V78.9169C45.6672 77.7951 45.2215 76.7191 44.4282 75.9258C43.6349 75.1326 42.5591 74.6869 41.4372 74.6869H41.3471C41.4067 74.4075 41.437 74.1226 41.4372 73.8369C41.3844 72.7519 40.9161 71.7288 40.1296 70.9796C39.343 70.2304 38.2984 69.8125 37.2121 69.8125C36.1258 69.8125 35.0813 70.2304 34.2947 70.9796C33.5082 71.7288 33.0399 72.7519 32.9871 73.8369C32.979 74.1225 33.006 74.4079 33.0672 74.6869H32.9871C32.4314 74.6866 31.881 74.7953 31.3671 75.0069C30.8508 75.2146 30.3815 75.5241 29.9871 75.9169C29.5935 76.311 29.2814 76.7788 29.0687 77.2935C28.8559 77.8083 28.7467 78.3599 28.7471 78.9169V79.2569C27.9078 79.602 27.2051 80.2134 26.7471 80.9969C26.2872 81.7742 26.0875 82.6781 26.1772 83.5769C26.2727 84.4739 26.6504 85.3174 27.2561 85.986C27.8617 86.6545 28.664 87.1135 29.5472 87.2969V87.3769C29.5452 88.2633 29.8236 89.1276 30.3427 89.8461C30.8618 90.5646 31.595 91.1004 32.4372 91.3769C33.2829 91.6601 34.1966 91.6674 35.0467 91.3978C35.8968 91.1282 36.6393 90.5957 37.1672 89.8769C37.5524 90.4094 38.06 90.8416 38.6472 91.1369C39.2338 91.4312 39.8808 91.5852 40.5372 91.5869C41.0921 91.5886 41.6421 91.4833 42.1572 91.2769C42.6725 91.0717 43.1416 90.7657 43.5372 90.3769C43.9357 89.9854 44.2524 89.5186 44.4687 89.0035C44.685 88.4885 44.7967 87.9355 44.7972 87.3769V87.2969C45.7511 87.0998 46.6084 86.581 47.2255 85.8274C47.8427 85.0737 48.1821 84.131 48.1872 83.1569L48.2271 83.1769Z" stroke="#DD0A15" stroke-width="1.57" stroke-miterlimit="10" stroke-linejoin="round"/>
<path d="M37.3828 91.0909V80.4609" stroke="#DD0A15" stroke-width="1.57" stroke-miterlimit="10"/>
<path d="M42.4978 83.3203C42.1243 84.2738 41.4725 85.0928 40.6271 85.6707C39.7817 86.2486 38.7819 86.5586 37.7578 86.5603" stroke="#DD0A15" stroke-width="1.57" stroke-miterlimit="10"/>
<path d="M37.5018 84.9997C36.8354 85.0021 36.1751 84.8726 35.559 84.6186C34.9428 84.3646 34.383 83.9911 33.9119 83.5197C32.9626 82.5654 32.4273 81.2757 32.4219 79.9297" stroke="#DD0A15" stroke-width="1.57" stroke-miterlimit="10"/>
<path d="M220.094 92.4609H0.09375" stroke="#DD0A15" stroke-width="1.57" stroke-miterlimit="10"/>
</svg>
