<svg width="221" height="100" viewBox="0 0 221 100" fill="none" xmlns="http://www.w3.org/2000/svg">
<rect width="220" height="100" transform="translate(0.0234375)" fill="white"/>
<path d="M80.9835 33.6762C80.9628 33.1374 80.8143 32.6113 80.5502 32.1413C80.2862 31.6712 79.9141 31.2707 79.4648 30.9728C79.0154 30.6748 78.5017 30.488 77.9659 30.4278C77.4302 30.3675 76.8877 30.4355 76.3834 30.6262C76.3934 30.433 76.3934 30.2395 76.3834 30.0463C76.3787 29.0425 76.0797 28.0622 75.5233 27.2268C74.967 26.3914 74.1777 25.7375 73.2534 25.3462C72.3266 24.9535 71.3039 24.8455 70.3155 25.0361C69.3271 25.2266 68.4178 25.7071 67.7034 26.4162C67.0987 24.2945 65.747 22.463 63.8976 21.2599C62.0483 20.0568 59.8262 19.5632 57.6414 19.8702C55.4566 20.1773 53.4565 21.2642 52.0104 22.9305C50.5644 24.5968 49.7698 26.7299 49.7734 28.9362V29.5862C49.0588 28.9973 48.1917 28.6233 47.2729 28.5079C46.3542 28.3925 45.4215 28.5404 44.5834 28.9343C43.7454 29.3281 43.0363 29.9518 42.5389 30.7329C42.0414 31.5139 41.776 32.4202 41.7734 33.3462V33.9863C41.7761 35.6298 42.4301 37.2052 43.5923 38.3674C44.7544 39.5295 46.3299 40.1836 47.9734 40.1862H74.7834C76.4261 40.1836 78.0005 39.5292 79.1611 38.3667C80.3216 37.2043 80.9735 35.6289 80.9734 33.9863V33.6762H80.9835Z" stroke="#DD0A15" stroke-width="1.57" stroke-miterlimit="10" stroke-linejoin="round"/>
<path d="M45.1184 60.9611C45.0926 60.3792 44.8433 59.8297 44.4222 59.4273C44.0011 59.0248 43.4409 58.8005 42.8585 58.8011C42.5924 58.8029 42.3285 58.8502 42.0784 58.9411V58.5611C42.0871 57.8952 41.8917 57.2426 41.5184 56.6911C41.2419 56.2777 40.8776 55.9305 40.4515 55.6741C40.0253 55.4177 39.5478 55.2585 39.0531 55.2079C38.5584 55.1573 38.0585 55.2165 37.5893 55.3812C37.1201 55.546 36.6929 55.8123 36.3384 56.1611C36.0549 55.1008 35.486 54.1385 34.6936 53.3791C33.9012 52.6197 32.9156 52.0922 31.8442 51.854C30.7728 51.6158 29.6566 51.676 28.6171 52.0281C27.5775 52.3802 26.6545 53.0108 25.9484 53.8511C24.9906 54.9634 24.4653 56.3833 24.4684 57.8511V58.2711C24.114 57.9764 23.7008 57.7608 23.2564 57.6385C22.812 57.5163 22.3466 57.4902 21.8914 57.5622C21.4361 57.6341 21.0015 57.8023 20.6164 58.0556C20.2313 58.3089 19.9047 58.6415 19.6584 59.0311C19.3308 59.5527 19.1542 60.1551 19.1484 60.7711V61.1611C19.1511 62.2477 19.5839 63.2889 20.3522 64.0573C21.1206 64.8256 22.1618 65.2584 23.2484 65.2611H40.9885C42.0752 65.2572 43.1167 64.8262 43.8884 64.0611C44.2695 63.6805 44.5717 63.2284 44.7776 62.7307C44.9836 62.2331 45.0892 61.6997 45.0884 61.1611V60.9511L45.1184 60.9611Z" stroke="#DD0A15" stroke-width="1.57" stroke-miterlimit="10"/>
<path d="M13.9537 23.07C13.0213 23.0766 12.1229 23.4206 11.4244 24.0382C10.7259 24.6558 10.2745 25.5054 10.1537 26.43C10.0537 25.4927 9.60809 24.6264 8.90375 24C8.202 23.3639 7.29087 23.008 6.34375 23" stroke="#DD0A15" stroke-width="1.57" stroke-linecap="round" stroke-linejoin="round"/>
<path d="M25.5084 30.0109C24.5751 30.0087 23.6733 30.3483 22.9733 30.9655C22.2732 31.5826 21.8233 32.4348 21.7084 33.361C21.6027 32.4249 21.1556 31.5606 20.4528 30.9334C19.7499 30.3061 18.8405 29.9599 17.8984 29.9609" stroke="#DD0A15" stroke-width="1.57" stroke-linecap="round" stroke-linejoin="round"/>
<path d="M158.217 91.6212C160.129 91.6212 161.999 91.0541 163.589 89.9916C165.179 88.929 166.419 87.4188 167.151 85.6518C167.883 83.8848 168.074 81.9405 167.701 80.0647C167.328 78.1889 166.407 76.4659 165.055 75.1135C163.702 73.7612 161.979 72.8402 160.103 72.4671C158.228 72.0939 156.283 72.2855 154.516 73.0173C152.749 73.7492 151.239 74.9886 150.177 76.5789C149.114 78.1691 148.547 80.0387 148.547 81.9512C148.547 84.5159 149.566 86.9755 151.379 88.789C153.193 90.6024 155.652 91.6212 158.217 91.6212Z" stroke="#DD0A15" stroke-width="1.57" stroke-miterlimit="10"/>
<path d="M130.217 91.6212C132.129 91.6212 133.999 91.0541 135.589 89.9916C137.179 88.929 138.419 87.4188 139.151 85.6518C139.883 83.8848 140.074 81.9405 139.701 80.0647C139.328 78.1889 138.407 76.4659 137.055 75.1135C135.702 73.7612 133.979 72.8402 132.103 72.4671C130.228 72.0939 128.283 72.2855 126.516 73.0173C124.749 73.7492 123.239 74.9886 122.177 76.5789C121.114 78.1691 120.547 80.0387 120.547 81.9512C120.547 84.5159 121.566 86.9755 123.379 88.789C125.193 90.6024 127.652 91.6212 130.217 91.6212Z" stroke="#DD0A15" stroke-width="1.57" stroke-miterlimit="10"/>
<path d="M158.274 81.7619L155.384 71.0919C154.873 69.2111 154.614 67.2708 154.614 65.3219V61.4619L145.944 53.6218C145.027 52.796 143.825 52.3584 142.592 52.4013C141.359 52.4442 140.191 52.9643 139.334 53.8519L132.334 61.1318C131.882 61.5987 131.543 62.1625 131.342 62.7802C131.141 63.3979 131.084 64.0532 131.175 64.6964C131.265 65.3396 131.501 65.9536 131.865 66.4918C132.229 67.0299 132.711 67.478 133.274 67.8019L139.484 71.3718L141.484 79.3718L141.694 83.5018H148.274" stroke="#DD0A15" stroke-width="1.57" stroke-linecap="round" stroke-linejoin="round"/>
<path d="M132 62L138.543 63.6719C139.06 63.8155 139.525 64.1034 139.883 64.5018L142.703 67.3619C143.945 68.721 144.762 70.4139 145.053 72.2319L146.053 79.5618" stroke="#DD0A15" stroke-width="1.57" stroke-linecap="round" stroke-linejoin="round"/>
<path d="M148.648 83.0068C148.648 82.5853 148.565 82.1679 148.403 81.7784C148.242 81.389 148.005 81.0351 147.707 80.7371C147.409 80.439 147.055 80.2025 146.666 80.0412C146.276 79.8799 145.859 79.7969 145.438 79.7969H141.438" stroke="#DD0A15" stroke-width="1.57" stroke-miterlimit="10"/>
<path d="M133.438 67.9609L130.438 81.8809H139.728" stroke="#DD0A15" stroke-width="1.57" stroke-linecap="round" stroke-linejoin="round"/>
<path d="M139.031 63.9628L144.361 58.6328L154.491 65.7528" stroke="#DD0A15" stroke-width="1.57" stroke-linecap="round" stroke-linejoin="round"/>
<path d="M154.961 61.6306H158.041C158.36 61.6084 158.68 61.6527 158.981 61.7606C159.279 61.8651 159.552 62.0321 159.781 62.2506C160.012 62.4671 160.196 62.7293 160.321 63.0206C160.508 63.4604 160.557 63.9468 160.46 64.4149C160.364 64.883 160.127 65.3106 159.781 65.6406C159.547 65.8522 159.276 66.0183 158.981 66.1306C158.679 66.2338 158.36 66.2779 158.041 66.2606H156.881" stroke="#DD0A15" stroke-width="1.57" stroke-linecap="round" stroke-linejoin="round"/>
<path d="M143.648 68.2109H154.648L154.698 68.671L145.858 76.4609" stroke="#DD0A15" stroke-width="1.57" stroke-linecap="round" stroke-linejoin="round"/>
<path d="M132.32 68.3809H130.75C130.431 68.3826 130.114 68.3179 129.82 68.1909C129.523 68.0702 129.255 67.8898 129.03 67.6609C128.803 67.4358 128.622 67.1671 128.5 66.8709C128.38 66.5756 128.319 66.2597 128.32 65.9409V64.4609H130.65" stroke="#DD0A15" stroke-width="1.57" stroke-linecap="round" stroke-linejoin="round"/>
<path d="M146.492 49.5803C146.63 50.0021 146.855 50.3904 147.152 50.7203C147.431 51.0437 147.771 51.3087 148.152 51.5003C148.559 51.6782 148.998 51.77 149.442 51.77C149.886 51.77 150.325 51.6782 150.732 51.5003C151.138 51.3246 151.506 51.0696 151.812 50.7503C152.116 50.4281 152.351 50.0469 152.502 49.6303C152.652 49.2142 152.713 48.7715 152.682 48.3303C152.653 47.8895 152.531 47.4599 152.322 47.0703" stroke="#DD0A15" stroke-width="1.57" stroke-linecap="round" stroke-linejoin="round"/>
<path d="M146.492 49.5831C148.32 48.475 150.301 47.6427 152.372 47.1132L156.042 46.9531" stroke="#DD0A15" stroke-width="1.57" stroke-linecap="round" stroke-linejoin="round"/>
<path d="M152.883 46.9914C152.483 46.1283 151.767 45.4517 150.883 45.1014C149.984 44.7622 148.989 44.7801 148.103 45.1514C147.207 45.5151 146.489 46.2151 146.103 47.1014C145.718 47.9825 145.686 48.9773 146.013 49.8814" stroke="#DD0A15" stroke-width="1.57" stroke-linecap="round" stroke-linejoin="round"/>
<path d="M94.5625 87.4609H84.7325C84.2233 87.4609 83.7349 87.6632 83.3749 88.0233C83.0148 88.3834 82.8125 88.8717 82.8125 89.3809V89.7509C82.8125 90.2601 83.0148 90.7485 83.3749 91.1086C83.7349 91.4687 84.2233 91.671 84.7325 91.671H94.5625C95.0717 91.671 95.5601 91.4687 95.9202 91.1086C96.2802 90.7485 96.4825 90.2601 96.4825 89.7509V89.3809C96.4825 88.8717 96.2802 88.3834 95.9202 88.0233C95.5601 87.6632 95.0717 87.4609 94.5625 87.4609Z" stroke="#DD0A15" stroke-width="1.57" stroke-linecap="round" stroke-linejoin="round"/>
<path d="M101.043 55.637H84.8826C84.7689 55.6408 84.6583 55.6754 84.5626 55.737C84.469 55.8043 84.3935 55.8935 84.3427 55.997C84.3129 56.105 84.3129 56.219 84.3427 56.327C84.3561 56.4405 84.4012 56.5479 84.4727 56.637L86.1226 58.427L84.5026 60.137C84.4314 60.2224 84.3863 60.3266 84.3726 60.437C84.3425 60.5483 84.3425 60.6657 84.3726 60.777C84.4198 60.8796 84.4941 60.9673 84.5875 61.0308C84.6809 61.0942 84.7899 61.1309 84.9027 61.137H101.083C101.228 61.1379 101.37 61.0884 101.483 60.997L104.133 58.897C104.209 58.8383 104.27 58.7631 104.313 58.677C104.352 58.589 104.373 58.4936 104.373 58.397C104.373 58.3004 104.352 58.205 104.313 58.117C104.27 58.0309 104.209 57.9557 104.133 57.897L101.473 55.737C101.345 55.6553 101.193 55.62 101.043 55.637Z" stroke="#DD0A15" stroke-width="1.57" stroke-linecap="round" stroke-linejoin="round"/>
<path d="M101.037 72.9062H84.877C84.7625 72.914 84.6521 72.952 84.557 73.0162C84.4638 73.0797 84.3882 73.1657 84.3371 73.2662C84.3069 73.3776 84.3069 73.4949 84.3371 73.6063C84.3483 73.7173 84.3938 73.8221 84.4671 73.9062L86.117 75.6962L84.4571 77.4562C84.3855 77.5454 84.3405 77.6528 84.327 77.7662C84.2972 77.8742 84.2972 77.9883 84.327 78.0963C84.374 78.1993 84.4462 78.2887 84.5371 78.3563C84.6327 78.4179 84.7433 78.4524 84.8571 78.4562H101.037C101.181 78.4577 101.321 78.412 101.437 78.3262L104.087 76.2162C104.167 76.1623 104.23 76.0857 104.267 75.9962C104.316 75.9112 104.34 75.8143 104.337 75.7162C104.339 75.6216 104.315 75.5282 104.267 75.4462C104.228 75.3555 104.166 75.2763 104.087 75.2162L101.427 73.0562C101.318 72.964 101.18 72.9112 101.037 72.9062Z" stroke="#DD0A15" stroke-width="1.57" stroke-linecap="round" stroke-linejoin="round"/>
<path d="M78.0266 64.2581H94.2266C94.3406 64.2603 94.4516 64.295 94.5466 64.3581C94.6408 64.4247 94.7165 64.5141 94.7665 64.6181C94.8011 64.7288 94.8011 64.8474 94.7665 64.9581C94.7561 65.0713 94.7066 65.1773 94.6265 65.2581L92.9766 67.0481L94.6466 68.7581C94.7181 68.8472 94.7631 68.9546 94.7766 69.0681C94.8059 69.1761 94.8059 69.29 94.7766 69.3981C94.727 69.4994 94.6552 69.5883 94.5665 69.6581C94.4709 69.7197 94.3603 69.7543 94.2465 69.7581H78.0165C77.8743 69.7575 77.7366 69.7081 77.6265 69.6181L74.9666 67.5181C74.8883 67.4618 74.8263 67.3859 74.7866 67.2981C74.7466 67.2102 74.7262 67.1146 74.7266 67.0181C74.7273 66.9216 74.7478 66.8264 74.7866 66.7381C74.829 66.652 74.8906 66.5767 74.9666 66.5181L77.6466 64.3581C77.7611 64.2892 77.8929 64.2544 78.0266 64.2581Z" stroke="#DD0A15" stroke-width="1.57" stroke-linecap="round" stroke-linejoin="round"/>
<path d="M91.1938 55.7063V53.7063C91.1946 53.5002 91.1538 53.2962 91.0738 53.1063C90.9971 52.9199 90.8851 52.7501 90.7438 52.6063C90.5951 52.4638 90.4225 52.3487 90.2338 52.2663C90.0452 52.1951 89.8454 52.1579 89.6438 52.1563C89.4399 52.155 89.2377 52.1942 89.049 52.2716C88.8604 52.349 88.689 52.4631 88.5448 52.6073C88.4006 52.7515 88.2865 52.9229 88.2091 53.1115C88.1317 53.3002 88.0925 53.5024 88.0938 53.7063V55.7063" stroke="#DD0A15" stroke-width="1.57" stroke-linecap="round" stroke-linejoin="round"/>
<path d="M91.1875 64.3865V61.2266" stroke="#DD0A15" stroke-width="1.57" stroke-linecap="round" stroke-linejoin="round"/>
<path d="M91.1875 73.0413V69.7812" stroke="#DD0A15" stroke-width="1.57" stroke-linecap="round" stroke-linejoin="round"/>
<path d="M88.1016 78.6016V87.4615H91.1915V78.6016" stroke="#DD0A15" stroke-width="1.57" stroke-linecap="round" stroke-linejoin="round"/>
<path d="M88.1016 69.7812V72.9913" stroke="#DD0A15" stroke-width="1.57" stroke-linecap="round" stroke-linejoin="round"/>
<path d="M88.1016 61.2812V64.2812" stroke="#DD0A15" stroke-width="1.57" stroke-linecap="round" stroke-linejoin="round"/>
<path d="M205.831 91.6228C206.844 91.6228 207.833 91.3225 208.675 90.7599C209.517 90.1973 210.174 89.3977 210.561 88.4621C210.949 87.5266 211.05 86.4971 210.853 85.504C210.655 84.5108 210.167 83.5985 209.451 82.8824C208.735 82.1664 207.823 81.6787 206.83 81.4812C205.837 81.2836 204.807 81.385 203.872 81.7726C202.936 82.1601 202.136 82.8163 201.574 83.6583C201.011 84.5003 200.711 85.4902 200.711 86.5028C200.711 87.8607 201.25 89.163 202.211 90.1232C203.171 91.0834 204.473 91.6228 205.831 91.6228Z" stroke="#DD0A15" stroke-width="1.57" stroke-miterlimit="10"/>
<path d="M182.831 91.6228C183.844 91.6228 184.833 91.3225 185.675 90.7599C186.517 90.1973 187.174 89.3977 187.561 88.4621C187.949 87.5266 188.05 86.4971 187.853 85.504C187.655 84.5108 187.167 83.5985 186.451 82.8824C185.735 82.1664 184.823 81.6787 183.83 81.4812C182.837 81.2836 181.807 81.385 180.872 81.7726C179.936 82.1601 179.136 82.8163 178.574 83.6583C178.011 84.5003 177.711 85.4902 177.711 86.5028C177.711 87.8607 178.25 89.163 179.211 90.1232C180.171 91.0834 181.473 91.6228 182.831 91.6228Z" stroke="#DD0A15" stroke-width="1.57" stroke-miterlimit="10"/>
<path d="M182.829 87.6636C183.056 87.6595 183.277 87.5891 183.464 87.4609C183.651 87.3328 183.796 87.1525 183.882 86.9426C183.968 86.7326 183.99 86.5021 183.947 86.2795C183.903 86.057 183.795 85.8522 183.636 85.6904C183.476 85.5287 183.274 85.4171 183.052 85.3696C182.83 85.322 182.599 85.3404 182.388 85.4227C182.176 85.505 181.994 85.6475 181.862 85.8325C181.731 86.0174 181.657 86.2369 181.649 86.4636C181.644 86.6209 181.67 86.7778 181.727 86.9245C181.785 87.0712 181.871 87.2048 181.981 87.3171C182.092 87.4293 182.224 87.5179 182.37 87.5775C182.515 87.6371 182.672 87.6664 182.829 87.6636Z" fill="#DD0A15"/>
<path d="M205.829 87.6636C206.056 87.6595 206.277 87.5891 206.464 87.4609C206.651 87.3328 206.796 87.1525 206.882 86.9426C206.968 86.7326 206.99 86.5021 206.947 86.2795C206.903 86.057 206.795 85.8522 206.636 85.6904C206.476 85.5287 206.274 85.4171 206.052 85.3696C205.83 85.322 205.599 85.3404 205.388 85.4227C205.176 85.505 204.994 85.6475 204.862 85.8325C204.731 86.0174 204.657 86.2369 204.649 86.4636C204.644 86.6209 204.67 86.7778 204.727 86.9245C204.785 87.0712 204.871 87.2048 204.981 87.3171C205.092 87.4293 205.224 87.5179 205.37 87.5775C205.515 87.6371 205.672 87.6664 205.829 87.6636Z" fill="#DD0A15"/>
<path d="M205.879 86.3417L203.549 77.7717C203.138 76.2593 202.929 74.6989 202.929 73.1317V70.0717L195.929 63.7717C195.192 63.1091 194.227 62.7577 193.237 62.7913C192.247 62.8248 191.309 63.2407 190.619 63.9517L184.959 69.8116C184.62 70.1473 184.355 70.549 184.179 70.9917C184.006 71.4338 183.931 71.9079 183.959 72.3817C183.988 72.9516 184.16 73.5052 184.459 73.9917C184.749 74.4769 185.159 74.8797 185.649 75.1617L190.649 78.0417L192.249 84.4617L192.419 87.7817H197.709" stroke="#DD0A15" stroke-width="1.57" stroke-linecap="round" stroke-linejoin="round"/>
<path d="M184.578 70.2031L190.008 71.7831C190.436 71.9126 190.818 72.1625 191.108 72.5031L193.378 74.8032C194.372 75.8955 195.026 77.2545 195.258 78.7131L196.088 84.6031" stroke="#DD0A15" stroke-width="1.57" stroke-linecap="round" stroke-linejoin="round"/>
<path d="M197.804 87.7812C197.804 86.3613 197.024 84.7812 195.594 84.7812H192.344" stroke="#DD0A15" stroke-width="1.57" stroke-miterlimit="10"/>
<path d="M190.379 78.4609L183.469 86.4609L187.649 86.231" stroke="#DD0A15" stroke-width="1.57" stroke-linecap="round" stroke-linejoin="round"/>
<path d="M190.398 72.0378L194.648 67.7578L202.788 73.4778" stroke="#DD0A15" stroke-width="1.57" stroke-linecap="round" stroke-linejoin="round"/>
<path d="M203.211 70.1588H205.651C205.905 70.1462 206.159 70.1801 206.401 70.2588C206.645 70.3421 206.867 70.4787 207.051 70.6588C207.239 70.8321 207.389 71.0424 207.491 71.2764C207.594 71.5105 207.647 71.7632 207.647 72.0188C207.647 72.2743 207.594 72.5272 207.491 72.7612C207.389 72.9953 207.239 73.2055 207.051 73.3788C206.869 73.559 206.646 73.6927 206.401 73.7688C206.161 73.8571 205.905 73.8912 205.651 73.8688H204.651" stroke="#DD0A15" stroke-width="1.57" stroke-linecap="round" stroke-linejoin="round"/>
<path d="M195.648 78.8372L203.198 77.3672L203.698 79.5372L196.198 82.9872" stroke="#DD0A15" stroke-width="1.57" stroke-linecap="round" stroke-linejoin="round"/>
<path d="M196.398 60.4565C196.596 61.031 196.991 61.5167 197.513 61.8277C198.035 62.1387 198.65 62.2547 199.249 62.1552C199.849 62.0557 200.393 61.7471 200.787 61.2842C201.18 60.8213 201.397 60.234 201.398 59.6265C201.399 59.2251 201.299 58.8299 201.108 58.4766" stroke="#DD0A15" stroke-width="1.57" stroke-linecap="round" stroke-linejoin="round"/>
<path d="M196.398 60.4581C197.864 59.5618 199.455 58.8878 201.118 58.4581L204.118 58.3281" stroke="#DD0A15" stroke-width="1.57" stroke-linecap="round" stroke-linejoin="round"/>
<path d="M201.56 58.3994C201.278 57.7713 200.792 57.2568 200.18 56.9393C199.565 56.6283 198.86 56.5391 198.186 56.6866C197.512 56.8341 196.91 57.2095 196.48 57.7493C196.048 58.2879 195.815 58.9589 195.82 59.6494C195.821 60.0152 195.889 60.3779 196.02 60.7194" stroke="#DD0A15" stroke-width="1.57" stroke-linecap="round" stroke-linejoin="round"/>
<path d="M220.023 92.4609H0.0234375" stroke="#DD0A15" stroke-width="1.57" stroke-miterlimit="10"/>
</svg>
