<svg width="221" height="100" viewBox="0 0 221 100" fill="none" xmlns="http://www.w3.org/2000/svg">
<rect width="220" height="100" transform="translate(0.109375)" fill="white"/>
<path d="M143.701 35.279C143.674 34.9279 143.572 34.5867 143.401 34.279C143.229 33.9716 142.986 33.7107 142.691 33.519C142.391 33.3205 142.048 33.1971 141.691 33.159C141.353 33.1137 141.01 33.1515 140.691 33.269V32.879C140.686 32.214 140.488 31.5647 140.12 31.0106C139.753 30.4564 139.232 30.0215 138.621 29.759C137.988 29.4988 137.292 29.4293 136.621 29.559C135.969 29.6894 135.371 30.0095 134.901 30.479C134.503 29.0683 133.603 27.8517 132.371 27.059C131.149 26.2586 129.677 25.9315 128.231 26.139C126.782 26.3339 125.454 27.0511 124.496 28.1559C123.539 29.2607 123.018 30.6771 123.031 32.139V32.559C122.556 32.1671 121.981 31.918 121.37 31.8404C120.76 31.7629 120.14 31.8601 119.583 32.1209C119.026 32.3817 118.554 32.7954 118.222 33.3137C117.891 33.832 117.714 34.4338 117.711 35.049C117.701 35.122 117.701 35.196 117.711 35.269V35.479C117.713 36.5647 118.146 37.6049 118.915 38.3717C119.684 39.1384 120.725 39.569 121.811 39.569H139.651C140.188 39.569 140.719 39.463 141.215 39.2571C141.711 39.0512 142.162 38.7493 142.541 38.369C142.927 37.9931 143.231 37.5399 143.431 37.039C143.641 36.5457 143.75 36.0152 143.751 35.479V35.249L143.701 35.279Z" stroke="#DD0A15" stroke-width="1.57" stroke-miterlimit="10" stroke-linejoin="round"/>
<path d="M92.5084 24.0097C91.5751 24.0075 90.6733 24.3471 89.9733 24.9642C89.2732 25.5814 88.8233 26.4335 88.7085 27.3597C88.6066 26.423 88.1613 25.5573 87.4585 24.9297C86.7573 24.2928 85.8457 23.9367 84.8984 23.9297" stroke="#DD0A15" stroke-width="1.57" stroke-linecap="round" stroke-linejoin="round"/>
<path d="M36.5625 87.4609H26.7324C26.4803 87.4609 26.2306 87.5106 25.9977 87.6071C25.7647 87.7036 25.5532 87.845 25.3749 88.0233C25.1966 88.2016 25.0551 88.4132 24.9586 88.6462C24.8621 88.8791 24.8125 89.1288 24.8125 89.3809V89.7509C24.8125 90.0031 24.8621 90.2528 24.9586 90.4857C25.0551 90.7187 25.1966 90.9303 25.3749 91.1086C25.5532 91.2869 25.7647 91.4283 25.9977 91.5248C26.2306 91.6213 26.4803 91.671 26.7324 91.671H36.5625C37.0717 91.671 37.5601 91.4687 37.9202 91.1086C38.2802 90.7485 38.4824 90.2601 38.4824 89.7509V89.3809C38.4824 88.8717 38.2802 88.3834 37.9202 88.0233C37.5601 87.6632 37.0717 87.4609 36.5625 87.4609Z" stroke="#DD0A15" stroke-width="1.57" stroke-linecap="round" stroke-linejoin="round"/>
<path d="M43.0462 55.637H26.8862C26.7691 55.6395 26.655 55.6741 26.5562 55.737C26.4626 55.8016 26.3896 55.8919 26.3461 55.997C26.3117 56.1043 26.3117 56.2197 26.3461 56.327C26.363 56.4414 26.4115 56.5487 26.4862 56.637L28.1362 58.427L26.5162 60.137C26.4418 60.2216 26.3932 60.3257 26.3762 60.437C26.3416 60.5477 26.3416 60.6663 26.3762 60.777C26.4169 60.8811 26.4906 60.9689 26.5861 61.027C26.6798 61.0941 26.7911 61.1323 26.9062 61.137H43.0861C43.2311 61.1348 43.3715 61.0857 43.4862 60.997L46.1362 58.897C46.2066 58.8354 46.2644 58.7606 46.3062 58.677C46.3526 58.5909 46.3769 58.4947 46.3769 58.397C46.3769 58.2992 46.3526 58.203 46.3062 58.117C46.2644 58.0333 46.2066 57.9586 46.1362 57.897L43.4761 55.737C43.3485 55.6553 43.1968 55.62 43.0462 55.637Z" stroke="#DD0A15" stroke-width="1.57" stroke-linecap="round" stroke-linejoin="round"/>
<path d="M43.053 72.9069H26.893C26.775 72.9129 26.661 72.9509 26.563 73.0169C26.4689 73.0811 26.3946 73.1705 26.3487 73.2748C26.3027 73.3791 26.2869 73.4941 26.303 73.6069C26.3184 73.7188 26.3672 73.8233 26.443 73.9069L28.0929 75.6969L26.4729 77.4069C26.3983 77.4952 26.3499 77.6026 26.333 77.7169C26.2986 77.8242 26.2986 77.9396 26.333 78.0469C26.3732 78.154 26.4468 78.2451 26.543 78.3069C26.6375 78.371 26.7487 78.4058 26.8629 78.4069H43.043C43.1869 78.4084 43.3274 78.3627 43.443 78.2769L46.0929 76.1669C46.168 76.1073 46.2294 76.0323 46.273 75.9469C46.3139 75.8593 46.3344 75.7636 46.333 75.6669C46.3333 75.5736 46.3127 75.4814 46.273 75.3969C46.2269 75.3103 46.1659 75.2325 46.0929 75.1669L43.433 73.0069C43.3194 72.9358 43.1869 72.9009 43.053 72.9069Z" stroke="#DD0A15" stroke-width="1.57" stroke-linecap="round" stroke-linejoin="round"/>
<path d="M20.0266 64.2588H36.2266C36.3436 64.2613 36.4579 64.296 36.5566 64.3589C36.6478 64.4261 36.7201 64.5156 36.7666 64.6188C36.8169 64.723 36.8343 64.8401 36.8164 64.9544C36.7985 65.0688 36.7463 65.1749 36.6666 65.2588L35.0166 67.0489L36.6366 68.7588C36.707 68.8497 36.755 68.9559 36.7766 69.0688C36.7894 69.1813 36.7721 69.2952 36.7266 69.3988C36.68 69.5021 36.6078 69.5916 36.5166 69.6589C36.4221 69.723 36.3108 69.7577 36.1967 69.7588H20.0166C19.8744 69.7583 19.7367 69.7088 19.6266 69.6188L16.9666 67.5188C16.8938 67.457 16.8328 67.3825 16.7866 67.2989C16.7467 67.211 16.7262 67.1154 16.7266 67.0188C16.7273 66.9224 16.7478 66.8272 16.7866 66.7389C16.8358 66.6573 16.8964 66.5832 16.9666 66.5188L19.6266 64.3589C19.7469 64.2861 19.8863 64.2513 20.0266 64.2588Z" stroke="#DD0A15" stroke-width="1.57" stroke-linecap="round" stroke-linejoin="round"/>
<path d="M33.1939 55.7062V53.7062C33.193 53.5013 33.1558 53.2982 33.0839 53.1063C33.0038 52.9193 32.8882 52.7495 32.7438 52.6063C32.5988 52.464 32.4294 52.3488 32.2438 52.2662C32.0517 52.1951 31.8487 52.1579 31.6438 52.1562C31.2325 52.1574 30.838 52.3188 30.5438 52.6063C30.2546 52.8992 30.0927 53.2946 30.0938 53.7062V55.7062" stroke="#DD0A15" stroke-width="1.57" stroke-linecap="round" stroke-linejoin="round"/>
<path d="M33.1875 64.3865V61.2266" stroke="#DD0A15" stroke-width="1.57" stroke-linecap="round" stroke-linejoin="round"/>
<path d="M33.1875 73.0413V69.7812" stroke="#DD0A15" stroke-width="1.57" stroke-linecap="round" stroke-linejoin="round"/>
<path d="M30.1094 78.6016V87.4615H33.1995V78.6016" stroke="#DD0A15" stroke-width="1.57" stroke-linecap="round" stroke-linejoin="round"/>
<path d="M30.1094 69.7812V72.9913" stroke="#DD0A15" stroke-width="1.57" stroke-linecap="round" stroke-linejoin="round"/>
<path d="M30.1094 61.2812V64.2812" stroke="#DD0A15" stroke-width="1.57" stroke-linecap="round" stroke-linejoin="round"/>
<mask id="mask0_1273_4376" style="mask-type:luminance" maskUnits="userSpaceOnUse" x="70" y="61" width="78" height="32">
<path d="M147.148 61.6172H70.1484V92.6172H147.148V61.6172Z" fill="white"/>
</mask>
<g mask="url(#mask0_1273_4376)">
<path d="M132.439 92.4581H84.8086L88.1986 63.3281H129.059L132.439 92.4581Z" stroke="#DD0A15" stroke-width="1.57" stroke-linecap="round" stroke-linejoin="round"/>
<path d="M114.938 73.168H102.328V80.6879H114.938V73.168Z" stroke="#DD0A15" stroke-width="1.57" stroke-linecap="round" stroke-linejoin="round"/>
<path d="M146.43 87.2273C142.244 85.9931 138.483 83.6177 135.57 80.3672C132.628 77.0724 130.64 73.0377 129.82 68.6973" stroke="#DD0A15" stroke-width="1.57" stroke-linecap="round" stroke-linejoin="round"/>
<path d="M145.249 84.1582L142.719 91.8782" stroke="#DD0A15" stroke-width="1.57" stroke-linecap="round" stroke-linejoin="round"/>
<path d="M70.8789 87.1178C74.8419 85.9644 78.4297 83.7841 81.2789 80.7979C84.1542 77.7721 86.2001 74.0556 87.2189 70.0078C87.4125 69.2666 87.5661 68.5155 87.679 67.7578" stroke="#DD0A15" stroke-width="1.57" stroke-linecap="round" stroke-linejoin="round"/>
<path d="M72.0508 84.0586L74.5907 91.7786" stroke="#DD0A15" stroke-width="1.57" stroke-linecap="round" stroke-linejoin="round"/>
</g>
<path d="M193.261 83.1772C193.278 82.3416 193.037 81.5211 192.571 80.8272C192.119 80.1282 191.468 79.5812 190.701 79.2572V78.9173C190.702 78.3614 190.594 77.8107 190.382 77.2969C190.169 76.7831 189.858 76.3163 189.465 75.9232C189.072 75.5302 188.605 75.2187 188.091 75.0066C187.577 74.7945 187.027 74.6859 186.471 74.6872H186.381C186.45 74.4095 186.48 74.1234 186.471 73.8372C186.432 73.0281 186.161 72.2473 185.691 71.5876C185.22 70.9278 184.571 70.417 183.819 70.1158C183.067 69.8146 182.244 69.7356 181.448 69.8883C180.653 70.041 179.918 70.419 179.331 70.9773C178.548 71.7303 178.08 72.7524 178.021 73.8372C178.023 74.1224 178.049 74.4068 178.101 74.6872H178.021C177.465 74.689 176.915 74.7976 176.401 75.0072C175.889 75.2175 175.423 75.5268 175.031 75.9173C174.634 76.3101 174.321 76.7797 174.111 77.2973C173.891 77.8091 173.779 78.3604 173.781 78.9173V79.2572C172.971 79.6238 172.297 80.2358 171.853 81.0066C171.41 81.7773 171.221 82.6679 171.311 83.5524C171.402 84.4369 171.768 85.2705 172.359 85.9353C172.949 86.6002 173.733 87.0626 174.601 87.2572V87.3372C174.601 88.2274 174.881 89.095 175.401 89.8172C175.918 90.5421 176.654 91.0819 177.501 91.3573C178.349 91.6324 179.263 91.6324 180.111 91.3573C180.959 91.0904 181.699 90.5574 182.221 89.8372C182.608 90.3681 183.115 90.7998 183.701 91.097C184.286 91.3942 184.934 91.5485 185.591 91.5473C186.149 91.55 186.703 91.4447 187.221 91.2373C187.735 91.0351 188.201 90.7286 188.591 90.3372C188.985 89.9439 189.301 89.4789 189.521 88.9673C189.739 88.4516 189.851 87.8972 189.851 87.3372V87.2572C190.805 87.0601 191.662 86.5413 192.279 85.7877C192.896 85.034 193.236 84.0913 193.241 83.1172L193.261 83.1772Z" stroke="#DD0A15" stroke-width="1.57" stroke-miterlimit="10" stroke-linejoin="round"/>
<path d="M182.422 91.0909V80.4609" stroke="#DD0A15" stroke-width="1.57" stroke-miterlimit="10"/>
<path d="M187.537 83.3203C187.163 84.2738 186.512 85.0928 185.666 85.6707C184.821 86.2486 183.821 86.5586 182.797 86.5603" stroke="#DD0A15" stroke-width="1.57" stroke-miterlimit="10"/>
<path d="M182.536 84.9997C181.851 85.0058 181.171 84.8766 180.536 84.6197C179.923 84.3588 179.363 83.9858 178.886 83.5197C178.415 83.0486 178.041 82.4888 177.787 81.8727C177.533 81.2565 177.404 80.5961 177.406 79.9297" stroke="#DD0A15" stroke-width="1.57" stroke-miterlimit="10"/>
<path d="M220.109 92.4609H0.109375" stroke="#DD0A15" stroke-width="1.57" stroke-miterlimit="10"/>
</svg>
