<svg width="221" height="100" viewBox="0 0 221 100" fill="none" xmlns="http://www.w3.org/2000/svg">
<rect width="220" height="100" transform="translate(0.0703125)" fill="white"/>
<path d="M35.6488 45.2837C35.6321 44.9308 35.529 44.5874 35.3488 44.2837C35.1813 43.9767 34.941 43.7157 34.6488 43.5236C34.3575 43.3301 34.0253 43.2067 33.6782 43.1634C33.3312 43.12 32.9788 43.1577 32.6488 43.2736V42.8836C32.6525 42.2184 32.4575 41.5673 32.0887 41.0136C31.7229 40.4569 31.1989 40.0224 30.5841 39.7658C29.9693 39.5092 29.2919 39.4422 28.6388 39.5736C27.9828 39.6935 27.3792 40.011 26.9088 40.4837C26.6249 38.9645 25.7657 37.6135 24.5104 36.7122C23.255 35.8108 21.7004 35.4286 20.1702 35.6452C18.64 35.8617 17.2523 36.6604 16.2964 37.8747C15.3405 39.0891 14.89 40.6254 15.0388 42.1637V42.5836C14.5645 42.1918 13.9887 41.9426 13.3784 41.8651C12.7681 41.7875 12.1483 41.8848 11.5911 42.1456C11.0338 42.4064 10.5621 42.82 10.2307 43.3383C9.89928 43.8567 9.72168 44.4584 9.71875 45.0736V45.5036C9.72403 46.5885 10.1581 47.6272 10.9261 48.3934C11.6942 49.1596 12.734 49.591 13.8188 49.5937H31.5588C32.0972 49.5914 32.63 49.4862 33.1288 49.2837C33.6258 49.0763 34.0776 48.774 34.4589 48.3936C34.8428 48.0173 35.147 47.5674 35.3531 47.0709C35.5593 46.5743 35.6633 46.0413 35.6588 45.5036V45.2736L35.6488 45.2837Z" stroke="#DD0A15" stroke-width="1.57" stroke-miterlimit="10" stroke-linejoin="round"/>
<path d="M71.8281 36.9609C72.817 36.9609 73.7837 36.6677 74.606 36.1183C75.4282 35.5689 76.0691 34.788 76.4475 33.8743C76.8259 32.9607 76.925 31.9554 76.7321 30.9855C76.5391 30.0156 76.0629 29.1247 75.3636 28.4254C74.6644 27.7262 73.7734 27.2499 72.8035 27.057C71.8336 26.8641 70.8283 26.9631 69.9147 27.3416C69.001 27.72 68.2202 28.3609 67.6708 29.1831C67.1214 30.0054 66.8281 30.972 66.8281 31.9609C66.8281 33.287 67.3548 34.5588 68.2925 35.4965C69.2302 36.4341 70.502 36.9609 71.8281 36.9609Z" stroke="#DD0A15" stroke-width="1.57" stroke-miterlimit="10"/>
<path d="M71.3674 40.8203L71.1875 44.1303" stroke="#DD0A15" stroke-width="1.57" stroke-linecap="round" stroke-linejoin="round"/>
<path d="M65.2412 37.8984L62.7812 40.1184" stroke="#DD0A15" stroke-width="1.57" stroke-linecap="round" stroke-linejoin="round"/>
<path d="M62.9818 31.5137L59.6719 31.3438" stroke="#DD0A15" stroke-width="1.57" stroke-linecap="round" stroke-linejoin="round"/>
<path d="M65.8997 25.3918L63.6797 22.9219" stroke="#DD0A15" stroke-width="1.57" stroke-linecap="round" stroke-linejoin="round"/>
<path d="M72.2891 23.1225L72.469 19.8125" stroke="#DD0A15" stroke-width="1.57" stroke-linecap="round" stroke-linejoin="round"/>
<path d="M78.4219 26.0403L80.8818 23.8203" stroke="#DD0A15" stroke-width="1.57" stroke-linecap="round" stroke-linejoin="round"/>
<path d="M80.6484 32.4609L83.9585 32.6309" stroke="#DD0A15" stroke-width="1.57" stroke-linecap="round" stroke-linejoin="round"/>
<path d="M77.7578 38.5625L79.9778 41.0225" stroke="#DD0A15" stroke-width="1.57" stroke-linecap="round" stroke-linejoin="round"/>
<path d="M177.82 62.4609L184.31 64.4609C184.844 64.6115 185.319 64.9221 185.67 65.351L188.49 68.2109C189.731 69.5659 190.545 71.2562 190.83 73.0709L191.83 80.4009" stroke="#DD0A15" stroke-width="1.57" stroke-linecap="round" stroke-linejoin="round"/>
<path d="M187.208 80.6019H191.208C194.308 80.6019 194.478 84.2819 194.478 84.2819L187.378 84.3519L187.168 80.2319L185.168 72.2319L178.958 68.6519C178.391 68.3326 177.908 67.8837 177.548 67.3419C177.002 66.531 176.751 65.5574 176.837 64.5837C176.922 63.61 177.339 62.6952 178.018 61.9919L185.018 54.7018C185.874 53.8184 187.039 53.3021 188.268 53.2618C189.507 53.2111 190.718 53.641 191.648 54.4619L200.318 62.2919V66.1019C200.314 68.0511 200.573 69.992 201.088 71.8718L205.608 83.7319" stroke="#DD0A15" stroke-width="1.57" stroke-linecap="round" stroke-linejoin="round"/>
<path d="M185.031 64.4609L190.131 59.4609L200.251 66.5909" stroke="#DD0A15" stroke-width="1.57" stroke-linecap="round" stroke-linejoin="round"/>
<path d="M200.727 62.4609H203.807C204.395 62.4992 204.946 62.7607 205.347 63.192C205.749 63.6233 205.97 64.1917 205.967 64.7809C205.968 65.3685 205.745 65.9344 205.344 66.3635C204.943 66.7927 204.393 67.0528 203.807 67.0909H202.647" stroke="#DD0A15" stroke-width="1.57" stroke-linecap="round" stroke-linejoin="round"/>
<path d="M192.25 50.4612C192.488 51.1843 192.975 51.7989 193.625 52.1948C194.275 52.5908 195.045 52.7421 195.796 52.6217C196.548 52.5013 197.232 52.117 197.725 51.5378C198.219 50.9586 198.49 50.2223 198.49 49.4612C198.487 48.9625 198.364 48.4719 198.13 48.0312" stroke="#DD0A15" stroke-width="1.57" stroke-linecap="round" stroke-linejoin="round"/>
<path d="M192.25 50.4581C194.08 49.357 196.061 48.5283 198.13 47.9981L201.8 47.8281" stroke="#DD0A15" stroke-width="1.57" stroke-linecap="round" stroke-linejoin="round"/>
<path d="M198.65 47.8338C198.297 47.0529 197.686 46.4172 196.92 46.0338C196.155 45.6435 195.278 45.5338 194.44 45.7238C193.604 45.9052 192.856 46.3676 192.32 47.0338C191.79 47.7063 191.501 48.5374 191.5 49.3938C191.502 49.8486 191.586 50.2993 191.75 50.7238" stroke="#DD0A15" stroke-width="1.57" stroke-linecap="round" stroke-linejoin="round"/>
<path d="M110.758 66.4609L116.758 68.231C117.252 68.3736 117.692 68.663 118.018 69.0609L120.648 71.7209C121.8 72.9865 122.558 74.5609 122.828 76.2509L123.828 83.0709" stroke="#DD0A15" stroke-width="1.57" stroke-linecap="round" stroke-linejoin="round"/>
<path d="M119.478 83.227H123.248C126.128 83.227 126.248 86.657 126.248 86.657L119.638 86.727L119.438 82.887L117.578 75.437L111.798 72.107C111.277 71.8049 110.832 71.3873 110.497 70.8862C110.163 70.3852 109.948 69.8142 109.868 69.217C109.783 68.6233 109.834 68.0179 110.018 67.447C110.198 66.8699 110.509 66.3427 110.928 65.907L117.478 59.127C118.275 58.2997 119.363 57.8152 120.511 57.776C121.659 57.7368 122.777 58.146 123.628 58.917L131.698 66.207V69.757C131.718 71.4356 131.889 73.109 132.208 74.757" stroke="#DD0A15" stroke-width="1.57" stroke-linecap="round" stroke-linejoin="round"/>
<path d="M117.406 68.2913L122.196 63.5312L131.626 70.1613" stroke="#DD0A15" stroke-width="1.57" stroke-linecap="round" stroke-linejoin="round"/>
<path d="M124.18 55.1135C124.429 55.7614 124.895 56.3029 125.498 56.6457C126.102 56.9885 126.806 57.1114 127.49 56.9935C128.174 56.8757 128.796 56.5242 129.25 55.999C129.704 55.4738 129.962 54.8075 129.98 54.1135C129.982 53.6464 129.869 53.186 129.65 52.7734" stroke="#DD0A15" stroke-width="1.57" stroke-linecap="round" stroke-linejoin="round"/>
<path d="M124.18 55.1063C125.879 54.0733 127.723 53.2982 129.65 52.8062L133.07 52.6562" stroke="#DD0A15" stroke-width="1.57" stroke-linecap="round" stroke-linejoin="round"/>
<path d="M130.162 52.7015C129.839 51.9695 129.275 51.3711 128.562 51.0068C127.85 50.6425 127.034 50.5347 126.252 50.7015C125.462 50.8658 124.755 51.3009 124.252 51.9315C123.874 52.4082 123.626 52.9751 123.533 53.5764C123.44 54.1777 123.505 54.7929 123.722 55.3615" stroke="#DD0A15" stroke-width="1.57" stroke-linecap="round" stroke-linejoin="round"/>
<path d="M174.652 72.7723V67.4623L167.652 61.1624C166.915 60.4998 165.951 60.1483 164.96 60.1819C163.97 60.2155 163.032 60.6314 162.342 61.3423L156.692 67.2023C156.328 67.5778 156.054 68.0317 155.893 68.5292C155.732 69.0268 155.687 69.5547 155.762 70.0723C155.835 70.5874 156.023 71.0795 156.312 71.5123C156.61 71.9287 157 72.2708 157.452 72.5123L162.452 75.3923L164.062 81.8223L164.232 85.1323H169.522" stroke="#DD0A15" stroke-width="1.57" stroke-linecap="round" stroke-linejoin="round"/>
<path d="M156.297 67.6016L161.737 69.1915C162.163 69.3135 162.543 69.5609 162.827 69.9016L165.097 72.2015C166.095 73.2912 166.749 74.6515 166.977 76.1116L167.817 82.0015" stroke="#DD0A15" stroke-width="1.57" stroke-linecap="round" stroke-linejoin="round"/>
<path d="M169.53 85.1484C169.53 83.7284 168.74 82.1484 167.32 82.1484H164.07" stroke="#DD0A15" stroke-width="1.57" stroke-miterlimit="10"/>
<path d="M162.203 69.2528L166.423 65.1328L174.563 70.8528" stroke="#DD0A15" stroke-width="1.57" stroke-linecap="round" stroke-linejoin="round"/>
<path d="M168.133 57.8472C168.295 58.361 168.622 58.8071 169.063 59.1172C169.498 59.434 170.024 59.6023 170.563 59.5972C171.244 59.5954 171.898 59.3261 172.383 58.8472C172.863 58.3621 173.135 57.7095 173.143 57.0272C173.132 56.624 173.033 56.228 172.853 55.8672" stroke="#DD0A15" stroke-width="1.57" stroke-linecap="round" stroke-linejoin="round"/>
<path d="M168.133 57.8488C169.599 56.953 171.189 56.279 172.853 55.8488L175.853 55.7188" stroke="#DD0A15" stroke-width="1.57" stroke-linecap="round" stroke-linejoin="round"/>
<path d="M173.29 55.7699C173.013 55.13 172.521 54.6067 171.9 54.2899C171.282 53.9784 170.575 53.8901 169.9 54.0399C169.218 54.1816 168.608 54.5608 168.18 55.1099C167.751 55.6565 167.524 56.3351 167.54 57.0299C167.545 57.393 167.616 57.7522 167.75 58.0899" stroke="#DD0A15" stroke-width="1.57" stroke-linecap="round" stroke-linejoin="round"/>
<path d="M205.65 91.6209C207.199 91.6209 208.713 91.1617 210 90.3013C211.288 89.441 212.292 88.2181 212.884 86.7874C213.477 85.3566 213.632 83.7822 213.33 82.2634C213.028 80.7445 212.282 79.3493 211.187 78.2543C210.092 77.1592 208.697 76.4135 207.178 76.1114C205.659 75.8093 204.085 75.9643 202.654 76.557C201.223 77.1496 200 78.1532 199.14 79.4408C198.28 80.7284 197.82 82.2423 197.82 83.791C197.823 85.8668 198.649 87.8568 200.117 89.3247C201.584 90.7925 203.574 91.6183 205.65 91.6209Z" stroke="#DD0A15" stroke-width="1.57" stroke-linecap="round" stroke-linejoin="round"/>
<path d="M106.65 91.6209C108.199 91.6209 109.713 91.1617 111 90.3013C112.288 89.441 113.292 88.2181 113.884 86.7874C114.477 85.3566 114.632 83.7822 114.33 82.2634C114.028 80.7445 113.282 79.3493 112.187 78.2543C111.092 77.1592 109.697 76.4135 108.178 76.1114C106.659 75.8093 105.085 75.9643 103.654 76.557C102.223 77.1496 101 78.1532 100.14 79.4408C99.2795 80.7284 98.8203 82.2423 98.8203 83.791C98.8203 85.8676 99.6452 87.8592 101.114 89.3276C102.582 90.796 104.574 91.6209 106.65 91.6209Z" stroke="#DD0A15" stroke-width="1.57" stroke-linecap="round" stroke-linejoin="round"/>
<path d="M117.406 54.9513C117.542 55.0904 117.706 55.1994 117.886 55.2713C118.071 55.3424 118.268 55.3796 118.466 55.3813C119.146 55.3013 119.216 54.5014 119.826 53.9114C120.012 53.7377 120.245 53.6229 120.496 53.5813C120.744 53.5312 121 53.552 121.236 53.6413" stroke="#DD0A15" stroke-width="1.57" stroke-linecap="round" stroke-linejoin="round"/>
<path d="M153.419 73.8888C153.419 73.8888 153.279 72.5389 153.279 70.9789V67.9089L146.279 61.6188C145.546 60.9485 144.581 60.5899 143.589 60.6188C142.598 60.6597 141.661 61.0784 140.969 61.7889L135.309 67.6388C134.945 68.0143 134.672 68.4682 134.51 68.9657C134.349 69.4633 134.304 69.9912 134.379 70.5088C134.45 71.0262 134.642 71.5196 134.939 71.9488C135.237 72.3617 135.623 72.7032 136.069 72.9488L141.069 75.8188L142.679 82.2488L142.879 85.5389H148.169" stroke="#DD0A15" stroke-width="1.57" stroke-linecap="round" stroke-linejoin="round"/>
<path d="M134.93 68.0391L140.37 69.629C140.797 69.7547 141.179 70.0013 141.47 70.3391L143.73 72.639C144.725 73.7318 145.382 75.0902 145.62 76.5491L146.45 82.439" stroke="#DD0A15" stroke-width="1.57" stroke-linecap="round" stroke-linejoin="round"/>
<path d="M148.163 85.6016C148.163 84.1816 147.373 82.6016 145.953 82.6016H142.703" stroke="#DD0A15" stroke-width="1.57" stroke-miterlimit="10"/>
<path d="M141.039 69.7615L145.039 65.6016L153.179 71.3315" stroke="#DD0A15" stroke-width="1.57" stroke-linecap="round" stroke-linejoin="round"/>
<path d="M146.758 58.3215C146.956 58.894 147.349 59.3787 147.868 59.6915C148.388 60.0039 149.003 60.1211 149.602 60.0222C150.201 59.9232 150.745 59.6147 151.138 59.1516C151.538 58.6951 151.758 58.1086 151.758 57.5015C151.758 57.1001 151.658 56.7049 151.468 56.3516" stroke="#DD0A15" stroke-width="1.57" stroke-linecap="round" stroke-linejoin="round"/>
<path d="M146.758 58.3197C148.223 57.4215 149.814 56.7474 151.478 56.3197L154.478 56.1797" stroke="#DD0A15" stroke-width="1.57" stroke-linecap="round" stroke-linejoin="round"/>
<path d="M151.883 56.2376C151.73 55.8732 151.507 55.5427 151.226 55.2649C150.945 54.9871 150.611 54.7675 150.245 54.6189C149.879 54.4702 149.487 54.3953 149.092 54.3985C148.697 54.4017 148.307 54.483 147.943 54.6375C147.213 54.9515 146.632 55.5356 146.323 56.2676C146.172 56.6321 146.094 57.0229 146.094 57.4176C146.094 57.8123 146.172 58.203 146.323 58.5675" stroke="#DD0A15" stroke-width="1.57" stroke-linecap="round" stroke-linejoin="round"/>
<path d="M140.539 58.092C140.825 58.3712 141.21 58.5258 141.609 58.522C142.279 58.442 142.359 57.642 142.959 57.052C143.149 56.8838 143.38 56.7697 143.629 56.722C143.876 56.6719 144.133 56.6927 144.369 56.782" stroke="#DD0A15" stroke-width="1.57" stroke-linecap="round" stroke-linejoin="round"/>
<path d="M168.992 82.8772L186.332 82.6172" stroke="#DD0A15" stroke-width="1.57" stroke-linecap="round" stroke-linejoin="round"/>
<path d="M147.828 83.1909L163.488 82.9609" stroke="#DD0A15" stroke-width="1.57" stroke-linecap="round" stroke-linejoin="round"/>
<path d="M125.578 83.5234L142.698 83.2734" stroke="#DD0A15" stroke-width="1.57" stroke-linecap="round" stroke-linejoin="round"/>
<path d="M117.736 76.2969L106.906 83.7969L119.656 83.6069" stroke="#DD0A15" stroke-width="1.57" stroke-linecap="round" stroke-linejoin="round"/>
<path d="M192.828 80.7131L201.708 73.9531" stroke="#DD0A15" stroke-width="1.57" stroke-linecap="round" stroke-linejoin="round"/>
<path d="M190.758 71.9932L200.878 71.4531" stroke="#DD0A15" stroke-width="1.57" stroke-linecap="round" stroke-linejoin="round"/>
<path d="M166.094 73.2812L185.094 72.2812" stroke="#DD0A15" stroke-width="1.57" stroke-linecap="round" stroke-linejoin="round"/>
<path d="M144.797 74.3984L159.047 73.6484" stroke="#DD0A15" stroke-width="1.57" stroke-linecap="round" stroke-linejoin="round"/>
<path d="M122.711 75.5609L138.711 74.7109" stroke="#DD0A15" stroke-width="1.57" stroke-linecap="round" stroke-linejoin="round"/>
<path d="M77.2271 83.1769C77.2388 82.342 76.9984 81.523 76.5372 80.8269C76.0804 80.1323 75.4304 79.5866 74.6672 79.2569V78.9169C74.6672 77.7951 74.2215 76.7191 73.4282 75.9258C72.6349 75.1326 71.5591 74.6869 70.4372 74.6869H70.3471C70.4067 74.4075 70.437 74.1226 70.4372 73.8369C70.3844 72.7519 69.9161 71.7288 69.1296 70.9796C68.343 70.2304 67.2984 69.8125 66.2121 69.8125C65.1258 69.8125 64.0813 70.2304 63.2947 70.9796C62.5082 71.7288 62.0399 72.7519 61.9871 73.8369C61.979 74.1225 62.006 74.4079 62.0672 74.6869H61.9871C61.4314 74.6866 60.881 74.7953 60.3671 75.0069C59.8508 75.2146 59.3815 75.5241 58.9871 75.9169C58.5935 76.311 58.2814 76.7788 58.0687 77.2935C57.8559 77.8083 57.7467 78.3599 57.7471 78.9169V79.2569C56.9078 79.602 56.2051 80.2134 55.7471 80.9969C55.2872 81.7742 55.0875 82.6781 55.1772 83.5769C55.2727 84.4739 55.6504 85.3174 56.2561 85.986C56.8617 86.6545 57.664 87.1135 58.5472 87.2969V87.3769C58.5452 88.2633 58.8236 89.1276 59.3427 89.8461C59.8618 90.5646 60.595 91.1004 61.4372 91.3769C62.2829 91.6601 63.1966 91.6674 64.0467 91.3978C64.8968 91.1282 65.6393 90.5957 66.1672 89.8769C66.5524 90.4094 67.06 90.8416 67.6472 91.1369C68.2338 91.4312 68.8808 91.5852 69.5372 91.5869C70.0921 91.5886 70.6421 91.4833 71.1572 91.2769C71.6725 91.0717 72.1416 90.7657 72.5372 90.3769C72.9357 89.9854 73.2524 89.5186 73.4687 89.0035C73.685 88.4885 73.7967 87.9355 73.7972 87.3769V87.2969C74.7511 87.0998 75.6084 86.581 76.2255 85.8274C76.8427 85.0737 77.1821 84.131 77.1872 83.1569L77.2271 83.1769Z" stroke="#DD0A15" stroke-width="1.57" stroke-miterlimit="10" stroke-linejoin="round"/>
<path d="M66.3828 91.0909V80.4609" stroke="#DD0A15" stroke-width="1.57" stroke-miterlimit="10"/>
<path d="M71.4978 83.3203C71.1243 84.2738 70.4725 85.0928 69.6271 85.6707C68.7817 86.2486 67.7819 86.5586 66.7578 86.5603" stroke="#DD0A15" stroke-width="1.57" stroke-miterlimit="10"/>
<path d="M66.5018 84.9997C65.8354 85.0021 65.1751 84.8726 64.559 84.6186C63.9428 84.3646 63.383 83.9911 62.9119 83.5197C61.9626 82.5654 61.4273 81.2757 61.4219 79.9297" stroke="#DD0A15" stroke-width="1.57" stroke-miterlimit="10"/>
<path d="M47.2271 83.1769C47.2388 82.342 46.9984 81.523 46.5372 80.8269C46.0804 80.1323 45.4304 79.5866 44.6672 79.2569V78.9169C44.6672 77.7951 44.2215 76.7191 43.4282 75.9258C42.6349 75.1326 41.5591 74.6869 40.4372 74.6869H40.3471C40.4067 74.4075 40.437 74.1226 40.4372 73.8369C40.3844 72.7519 39.9161 71.7288 39.1296 70.9796C38.343 70.2304 37.2984 69.8125 36.2121 69.8125C35.1258 69.8125 34.0813 70.2304 33.2947 70.9796C32.5082 71.7288 32.0399 72.7519 31.9871 73.8369C31.979 74.1225 32.006 74.4079 32.0672 74.6869H31.9871C31.4314 74.6866 30.881 74.7953 30.3671 75.0069C29.8508 75.2146 29.3815 75.5241 28.9871 75.9169C28.5935 76.311 28.2814 76.7788 28.0687 77.2935C27.8559 77.8083 27.7467 78.3599 27.7471 78.9169V79.2569C26.9078 79.602 26.2051 80.2134 25.7471 80.9969C25.2872 81.7742 25.0875 82.6781 25.1772 83.5769C25.2727 84.4739 25.6504 85.3174 26.2561 85.986C26.8617 86.6545 27.664 87.1135 28.5472 87.2969V87.3769C28.5452 88.2633 28.8236 89.1276 29.3427 89.8461C29.8618 90.5646 30.595 91.1004 31.4372 91.3769C32.2829 91.6601 33.1966 91.6674 34.0467 91.3978C34.8968 91.1282 35.6393 90.5957 36.1672 89.8769C36.5524 90.4094 37.06 90.8416 37.6472 91.1369C38.2338 91.4312 38.8808 91.5852 39.5372 91.5869C40.0921 91.5886 40.6421 91.4833 41.1572 91.2769C41.6725 91.0717 42.1416 90.7657 42.5372 90.3769C42.9357 89.9854 43.2524 89.5186 43.4687 89.0035C43.685 88.4885 43.7967 87.9355 43.7972 87.3769V87.2969C44.7511 87.0998 45.6084 86.581 46.2255 85.8274C46.8427 85.0737 47.1821 84.131 47.1872 83.1569L47.2271 83.1769Z" stroke="#DD0A15" stroke-width="1.57" stroke-miterlimit="10" stroke-linejoin="round"/>
<path d="M36.3828 91.0909V80.4609" stroke="#DD0A15" stroke-width="1.57" stroke-miterlimit="10"/>
<path d="M41.4978 83.3203C41.1243 84.2738 40.4725 85.0928 39.6271 85.6707C38.7817 86.2486 37.7819 86.5586 36.7578 86.5603" stroke="#DD0A15" stroke-width="1.57" stroke-miterlimit="10"/>
<path d="M36.5018 84.9997C35.8354 85.0021 35.1751 84.8726 34.559 84.6186C33.9428 84.3646 33.383 83.9911 32.9119 83.5197C31.9626 82.5654 31.4273 81.2757 31.4219 79.9297" stroke="#DD0A15" stroke-width="1.57" stroke-miterlimit="10"/>
<path d="M220.07 92.4609H0.0703125" stroke="#DD0A15" stroke-width="1.57" stroke-miterlimit="10"/>
</svg>
