<svg width="220" height="100" viewBox="0 0 220 100" fill="none" xmlns="http://www.w3.org/2000/svg">
<rect width="220" height="100" fill="white"/>
<path d="M127.111 41.9601C127.081 41.3765 126.831 40.8259 126.411 40.4201C125.99 40.0209 125.431 39.7989 124.851 39.8002C124.581 39.7971 124.313 39.8445 124.061 39.9401C124.071 39.8136 124.071 39.6866 124.061 39.5601C124.061 38.6637 123.705 37.804 123.071 37.1701C122.437 36.5362 121.577 36.1801 120.681 36.1801C120.241 36.1803 119.806 36.2688 119.401 36.4401C118.99 36.6095 118.619 36.8614 118.311 37.1801C118.005 35.6841 117.14 34.361 115.892 33.4806C114.644 32.6001 113.108 32.2285 111.596 32.4414C110.084 32.6544 108.71 33.4358 107.754 34.6266C106.798 35.8173 106.332 37.3278 106.451 38.8501V39.2701C105.979 38.8718 105.403 38.6183 104.791 38.5401C104.333 38.4834 103.869 38.5246 103.429 38.6611C102.988 38.7975 102.582 39.0261 102.237 39.3316C101.892 39.6371 101.615 40.0125 101.426 40.4329C101.237 40.8533 101.14 41.3092 101.141 41.7701V42.1401C101.143 42.6752 101.248 43.2048 101.451 43.7001C101.66 44.1988 101.962 44.6534 102.341 45.0401C103.115 45.8007 104.155 46.231 105.241 46.2402H122.981C124.069 46.2325 125.11 45.798 125.881 45.0301C126.648 44.264 127.08 43.2244 127.081 42.1401V41.9301L127.111 41.9601Z" stroke="#DD0A15" stroke-width="1.57" stroke-miterlimit="10" stroke-linejoin="round"/>
<path d="M62.5376 65.7075C62.5479 64.8759 62.3074 64.0605 61.8476 63.3675C61.3931 62.6709 60.7423 62.1247 59.9776 61.7975V61.4575C59.9758 60.902 59.8672 60.352 59.6576 59.8375C59.3356 59.0664 58.7924 58.4079 58.0965 57.9452C57.4006 57.4825 56.5833 57.2362 55.7476 57.2375H55.6476C55.7077 56.9548 55.7379 56.6665 55.7376 56.3775C55.7659 55.806 55.6777 55.2347 55.4782 54.6983C55.2788 54.1619 54.9724 53.6717 54.5776 53.2575C54.181 52.8449 53.7061 52.5157 53.1807 52.289C52.6552 52.0623 52.0898 51.9428 51.5176 51.9375C50.9428 51.9378 50.3742 52.057 49.8476 52.2875C49.3155 52.5181 48.8383 52.8589 48.4476 53.2875C48.0528 53.7018 47.7464 54.192 47.547 54.7283C47.3476 55.2647 47.2593 55.836 47.2876 56.4075C47.2857 56.6957 47.3091 56.9835 47.3576 57.2675H47.2876C46.7315 57.2635 46.1804 57.3724 45.6676 57.5875C45.1521 57.7959 44.6833 58.1049 44.2884 58.4963C43.8935 58.8878 43.5805 59.3539 43.3676 59.8675C43.1561 60.3814 43.0473 60.9318 43.0476 61.4875V61.8375C42.2102 62.1858 41.5084 62.7963 41.0476 63.5775C40.7071 64.1599 40.5085 64.8142 40.4676 65.4875C40.4297 66.1608 40.5534 66.8334 40.8282 67.4492C41.1031 68.065 41.5211 68.6061 42.0476 69.0275C42.5755 69.4475 43.196 69.7355 43.8576 69.8675V69.9375C43.8609 70.5995 44.02 71.2515 44.3219 71.8407C44.6238 72.4299 45.0601 72.9398 45.5955 73.3292C46.1309 73.7186 46.7504 73.9765 47.404 74.0822C48.0575 74.1879 48.7268 74.1383 49.3576 73.9375C50.2059 73.6706 50.9458 73.1377 51.4676 72.4175C51.859 72.9482 52.3693 73.3797 52.9576 73.6775C53.5419 73.9795 54.1899 74.1372 54.8476 74.1375C55.4059 74.1402 55.9593 74.035 56.4776 73.8275C57.2534 73.5095 57.9185 72.97 58.3897 72.2765C58.861 71.5829 59.1176 70.7659 59.1276 69.9275C60.0859 69.7392 60.9485 69.2228 61.5672 68.4672C62.1859 67.7116 62.522 66.7641 62.5176 65.7875L62.5376 65.7075Z" stroke="#DD0A15" stroke-width="1.57" stroke-miterlimit="10"/>
<path d="M51.6484 91.6212V63.0312" stroke="#DD0A15" stroke-width="1.57" stroke-miterlimit="10"/>
<path d="M56.8806 65.8984C56.5089 66.8526 55.857 67.6719 55.0106 68.2484C54.1624 68.821 53.164 69.1307 52.1406 69.1384" stroke="#DD0A15" stroke-width="1.57" stroke-miterlimit="10"/>
<path d="M51.8769 67.541C50.5304 67.5383 49.2398 67.0022 48.2877 66.0501C47.3356 65.098 46.7995 63.8074 46.7969 62.4609" stroke="#DD0A15" stroke-width="1.57" stroke-miterlimit="10"/>
<path d="M76.9381 23.0725C76.0007 23.0841 75.1002 23.44 74.4081 24.0725C73.7081 24.6923 73.2568 25.5451 73.1381 26.4725C73.0304 25.5364 72.5831 24.6722 71.881 24.0437C71.1788 23.4152 70.2705 23.0661 69.3281 23.0625" stroke="#DD0A15" stroke-width="1.57" stroke-linecap="round" stroke-linejoin="round"/>
<path d="M47.36 35.1428C46.4191 35.1519 45.5146 35.508 44.82 36.1428C44.1176 36.7553 43.6684 37.6073 43.56 38.5328C43.448 37.5993 42.9991 36.7388 42.2976 36.1128C41.5961 35.4868 40.6902 35.1383 39.75 35.1328" stroke="#DD0A15" stroke-width="1.57" stroke-linecap="round" stroke-linejoin="round"/>
<path d="M143.797 76.8672H145.217C145.66 76.8672 146.085 77.0431 146.398 77.3563C146.711 77.6695 146.887 78.0943 146.887 78.5372V81.5372C146.887 81.7565 146.844 81.9737 146.76 82.1763C146.676 82.3788 146.552 82.5627 146.397 82.7172C146.243 82.8737 146.059 82.9977 145.857 83.0818C145.654 83.166 145.436 83.2087 145.217 83.2072H143.797V76.8772V76.8672Z" stroke="#DD0A15" stroke-width="1.57" stroke-miterlimit="10"/>
<path d="M208.881 80.9522H208.521C207.397 80.9483 206.29 80.6736 205.294 80.1514C204.299 79.6292 203.443 78.8749 202.801 77.9522C202.702 77.8082 202.649 77.6371 202.651 77.4622C202.639 77.296 202.673 77.1297 202.751 76.9822C202.824 76.8334 202.939 76.7084 203.08 76.6217C203.222 76.535 203.385 76.4902 203.551 76.4923H208.891L208.881 80.9522Z" stroke="#DD0A15" stroke-width="1.57" stroke-linecap="round" stroke-linejoin="round"/>
<path d="M202.377 87.7009H205.787C206.605 87.6957 207.388 87.3685 207.966 86.7901C208.544 86.2117 208.872 85.4289 208.877 84.611V75.791C208.876 74.9692 208.548 74.1815 207.967 73.601C207.681 73.3146 207.341 73.0877 206.967 72.9332C206.593 72.7788 206.192 72.6998 205.787 72.7009C204.724 72.7 203.675 72.4608 202.717 72.0009C201.757 71.5317 200.919 70.8473 200.267 70.0009L190.347 57.4609C189.865 56.8421 189.25 56.3398 188.547 55.991C187.845 55.6419 187.071 55.4604 186.287 55.4609H148.457C147.844 55.4609 147.237 55.5818 146.671 55.8166C146.105 56.0514 145.591 56.3956 145.158 56.8293C144.725 57.2631 144.382 57.778 144.149 58.3445C143.915 58.9111 143.796 59.5181 143.797 60.1309V83.041C143.796 83.6538 143.915 84.2608 144.149 84.8273C144.382 85.3939 144.725 85.9088 145.158 86.3425C145.591 86.7763 146.105 87.1205 146.671 87.3553C147.237 87.5901 147.844 87.7109 148.457 87.7109H150.547" stroke="#DD0A15" stroke-width="1.57" stroke-miterlimit="10"/>
<path d="M162.219 87.7031H190.649" stroke="#DD0A15" stroke-width="1.57" stroke-miterlimit="10"/>
<path d="M173.381 58.8672H149.381C148.805 58.8672 148.253 59.0959 147.846 59.5028C147.44 59.9098 147.211 60.4617 147.211 61.0372V69.3672C147.211 69.9427 147.44 70.4947 147.846 70.9016C148.253 71.3086 148.805 71.5372 149.381 71.5372H173.381C173.956 71.5372 174.508 71.3086 174.915 70.9016C175.322 70.4947 175.551 69.9427 175.551 69.3672V61.0372C175.551 60.4617 175.322 59.9098 174.915 59.5028C174.508 59.0959 173.956 58.8672 173.381 58.8672Z" stroke="#DD0A15" stroke-width="1.57" stroke-miterlimit="10"/>
<path d="M166.383 71.5272V58.8672" stroke="#DD0A15" stroke-width="1.57" stroke-miterlimit="10"/>
<path d="M173.359 76.0909V74.4609" stroke="#DD0A15" stroke-width="1.57" stroke-linecap="round" stroke-linejoin="round"/>
<path d="M184.217 74.7031H181.547" stroke="#DD0A15" stroke-width="1.57" stroke-linecap="round" stroke-linejoin="round"/>
<path d="M156.383 71.5272V58.8672" stroke="#DD0A15" stroke-width="1.57" stroke-miterlimit="10"/>
<path d="M185.763 58.8672H181.303C180.729 58.8672 180.179 59.0945 179.772 59.4993C179.365 59.9041 179.135 60.4535 179.133 61.0272V69.3672C179.132 69.6521 179.188 69.9343 179.298 70.1971C179.408 70.4599 179.569 70.698 179.773 70.8972C179.974 71.0976 180.213 71.2564 180.475 71.3645C180.738 71.4726 181.019 71.5279 181.303 71.5272H192.353C192.707 71.5281 193.055 71.4303 193.357 71.2449C193.659 71.0595 193.903 70.7937 194.063 70.4772C194.22 70.1685 194.289 69.8226 194.263 69.4772C194.235 69.1175 194.111 68.772 193.903 68.4772L187.543 59.7672C187.336 59.4876 187.065 59.2614 186.753 59.1073C186.447 58.9484 186.107 58.866 185.763 58.8672Z" stroke="#DD0A15" stroke-width="1.57" stroke-miterlimit="10"/>
<path d="M196.467 87.6212C196.945 87.6212 197.413 87.4793 197.811 87.2134C198.209 86.9475 198.519 86.5695 198.703 86.1273C198.886 85.6851 198.934 85.1986 198.84 84.7291C198.747 84.2597 198.516 83.8285 198.178 83.49C197.84 83.1516 197.408 82.9211 196.939 82.8278C196.47 82.7344 195.983 82.7823 195.541 82.9655C195.099 83.1486 194.721 83.4588 194.455 83.8567C194.189 84.2547 194.047 84.7226 194.047 85.2012C194.05 85.8422 194.305 86.4563 194.759 86.9095C195.212 87.3628 195.826 87.6186 196.467 87.6212Z" stroke="#DD0A15" stroke-width="1.57" stroke-miterlimit="10"/>
<path d="M196.467 91.6212C197.737 91.6212 198.978 91.2447 200.034 90.5393C201.089 89.8339 201.912 88.8312 202.398 87.6581C202.884 86.485 203.011 85.1942 202.763 83.9488C202.516 82.7034 201.904 81.5595 201.006 80.6616C200.109 79.7638 198.965 79.1523 197.719 78.9046C196.474 78.6569 195.183 78.784 194.01 79.27C192.837 79.7559 191.834 80.5787 191.129 81.6345C190.423 82.6902 190.047 83.9315 190.047 85.2012C190.05 86.9031 190.727 88.5346 191.93 89.738C193.134 90.9414 194.765 91.6186 196.467 91.6212Z" stroke="#DD0A15" stroke-width="1.57" stroke-miterlimit="10"/>
<path d="M156.459 87.6212C156.938 87.6212 157.406 87.4793 157.804 87.2134C158.201 86.9475 158.512 86.5695 158.695 86.1273C158.878 85.6851 158.926 85.1986 158.833 84.7291C158.739 84.2597 158.509 83.8285 158.17 83.49C157.832 83.1516 157.401 82.9211 156.931 82.8278C156.462 82.7344 155.975 82.7823 155.533 82.9655C155.091 83.1486 154.713 83.4588 154.447 83.8567C154.181 84.2547 154.039 84.7226 154.039 85.2012C154.039 85.8431 154.294 86.4586 154.748 86.9124C155.202 87.3662 155.817 87.6212 156.459 87.6212Z" stroke="#DD0A15" stroke-width="1.57" stroke-miterlimit="10"/>
<path d="M156.459 91.6212C157.729 91.6212 158.97 91.2447 160.026 90.5393C161.082 89.8339 161.904 88.8312 162.39 87.6581C162.876 86.485 163.003 85.1942 162.756 83.9488C162.508 82.7034 161.897 81.5595 160.999 80.6616C160.101 79.7638 158.957 79.1523 157.712 78.9046C156.466 78.6569 155.175 78.784 154.002 79.27C152.829 79.7559 151.826 80.5787 151.121 81.6345C150.416 82.6902 150.039 83.9315 150.039 85.2012C150.039 86.9039 150.715 88.5369 151.919 89.7408C153.123 90.9448 154.756 91.6212 156.459 91.6212Z" stroke="#DD0A15" stroke-width="1.57" stroke-miterlimit="10"/>
<path d="M184.777 48.6719H171.987C171.732 48.6719 171.48 48.722 171.244 48.8195C171.009 48.917 170.795 49.0599 170.615 49.2401C170.435 49.4202 170.292 49.6341 170.195 49.8694C170.097 50.1048 170.047 50.3571 170.047 50.6119V53.0919C170.047 53.3466 170.097 53.5989 170.195 53.8342C170.292 54.0696 170.435 54.2835 170.615 54.4636C170.795 54.6438 171.009 54.7867 171.244 54.8842C171.48 54.9816 171.732 55.0319 171.987 55.0319H184.777C185.291 55.0319 185.785 54.8274 186.149 54.4636C186.512 54.0998 186.717 53.6064 186.717 53.0919V50.6119C186.717 50.0974 186.512 49.6039 186.149 49.2401C185.785 48.8762 185.291 48.6719 184.777 48.6719Z" stroke="#DD0A15" stroke-width="1.57" stroke-miterlimit="10"/>
<path d="M182.344 51.51V49" stroke="#DD0A15" stroke-width="1.57" stroke-linecap="round" stroke-linejoin="round"/>
<path d="M164.777 48.6719H151.987C151.732 48.6719 151.48 48.722 151.244 48.8195C151.009 48.917 150.795 49.0599 150.615 49.2401C150.435 49.4202 150.292 49.6341 150.195 49.8694C150.097 50.1048 150.047 50.3571 150.047 50.6119V53.0919C150.047 53.3466 150.097 53.5989 150.195 53.8342C150.292 54.0696 150.435 54.2835 150.615 54.4636C150.795 54.6438 151.009 54.7867 151.244 54.8842C151.48 54.9816 151.732 55.0319 151.987 55.0319H164.777C165.291 55.0319 165.785 54.8274 166.149 54.4636C166.512 54.0998 166.717 53.6064 166.717 53.0919V50.6119C166.717 50.0974 166.512 49.6039 166.149 49.2401C165.785 48.8762 165.291 48.6719 164.777 48.6719Z" stroke="#DD0A15" stroke-width="1.57" stroke-miterlimit="10"/>
<path d="M162.344 51.51V49" stroke="#DD0A15" stroke-width="1.57" stroke-linecap="round" stroke-linejoin="round"/>
<mask id="mask0_1273_4103" style="mask-type:luminance" maskUnits="userSpaceOnUse" x="88" y="59" width="39" height="33">
<path d="M126.188 59.7031H88.1484V91.6231H126.188V59.7031Z" fill="white"/>
</mask>
<g mask="url(#mask0_1273_4103)">
<path d="M120.556 70.9735C120.667 70.9735 120.775 70.9407 120.867 70.8792C120.959 70.8176 121.031 70.7302 121.073 70.6278C121.116 70.5255 121.127 70.4129 121.105 70.3043C121.084 70.1957 121.03 70.0959 120.952 70.0175C120.874 69.9392 120.774 69.8859 120.665 69.8643C120.557 69.8427 120.444 69.8538 120.342 69.8961C120.239 69.9385 120.152 70.0103 120.091 70.1024C120.029 70.1945 119.996 70.3028 119.996 70.4135C119.996 70.5621 120.055 70.7045 120.16 70.8095C120.265 70.9145 120.408 70.9735 120.556 70.9735Z" fill="#DD0A15"/>
<path d="M116.556 70.9735C116.667 70.9735 116.775 70.9407 116.867 70.8792C116.959 70.8176 117.031 70.7302 117.073 70.6278C117.116 70.5255 117.127 70.4129 117.105 70.3043C117.084 70.1957 117.03 70.0959 116.952 70.0175C116.874 69.9392 116.774 69.8859 116.665 69.8643C116.557 69.8427 116.444 69.8538 116.342 69.8961C116.239 69.9385 116.152 70.0103 116.091 70.1024C116.029 70.1945 115.996 70.3028 115.996 70.4135C115.996 70.5621 116.055 70.7045 116.16 70.8095C116.265 70.9145 116.408 70.9735 116.556 70.9735Z" fill="#DD0A15"/>
<path d="M119.816 74.0039L119.106 75.234C119.061 75.3108 118.995 75.3732 118.916 75.414C118.84 75.4599 118.754 75.4842 118.666 75.4842C118.578 75.4842 118.491 75.4599 118.416 75.414C118.339 75.3701 118.274 75.3084 118.226 75.234L117.516 74.0039C117.457 73.9003 117.426 73.7832 117.426 73.664C117.425 73.5478 117.456 73.4335 117.516 73.3339C117.575 73.2325 117.662 73.1494 117.766 73.094C117.865 73.0341 117.98 73.0029 118.096 73.0039H119.246C119.362 73.0029 119.476 73.0341 119.576 73.094C119.675 73.1527 119.757 73.2352 119.816 73.3339C119.874 73.4341 119.905 73.548 119.906 73.664C119.906 73.7832 119.875 73.9003 119.816 74.0039Z" fill="#DD0A15"/>
<path d="M121.246 64.6641H123.726C124.198 64.6666 124.65 64.8531 124.986 65.184C125.149 65.3486 125.278 65.5437 125.366 65.7582C125.453 65.9727 125.498 66.2024 125.496 66.434C125.505 66.7849 125.41 67.1307 125.224 67.4278C125.037 67.7249 124.766 67.9602 124.446 68.1041" stroke="#DD0A15" stroke-width="1.3" stroke-linecap="round" stroke-linejoin="round"/>
<path d="M112.706 68.1034C112.383 67.9713 112.108 67.7447 111.916 67.4534C111.736 67.1869 111.632 66.8765 111.616 66.5555C111.599 66.2345 111.67 65.915 111.821 65.6313C111.972 65.3476 112.198 65.1104 112.473 64.9452C112.749 64.78 113.065 64.6929 113.386 64.6934H115.976" stroke="#DD0A15" stroke-width="1.3" stroke-linecap="round" stroke-linejoin="round"/>
<path d="M124.755 69.6529C124.695 69.1189 124.567 68.5947 124.375 68.0929C123.936 66.9644 123.165 65.9953 122.165 65.3128C121.164 64.6486 119.986 64.3002 118.785 64.3128H118.325C116.836 64.3049 115.396 64.8512 114.287 65.8456C113.178 66.84 112.479 68.2113 112.325 69.6928C112.115 71.6928 113.555 74.5329 115.525 74.8529C115.525 75.607 115.824 76.3304 116.356 76.8646C116.889 77.3988 117.611 77.7002 118.365 77.7028H118.645C119.399 77.7002 120.122 77.3988 120.654 76.8646C121.186 76.3304 121.485 75.607 121.485 74.8529C123.525 74.4629 124.965 71.7029 124.755 69.6529Z" stroke="#DD0A15" stroke-width="1.3" stroke-linecap="round" stroke-linejoin="round"/>
<path d="M106.168 61.9844H100.248C97.2194 61.9844 94.3146 63.1876 92.173 65.3292C90.0313 67.4709 88.8281 70.3756 88.8281 73.4044V80.8544" stroke="#DD0A15" stroke-width="1.3" stroke-linecap="round" stroke-linejoin="round"/>
<path d="M98.2969 90.9726H92.7969V87.8926L88.7969 80.8926" stroke="#DD0A15" stroke-width="1.3" stroke-linecap="round" stroke-linejoin="round"/>
<path d="M98.2969 79.8535V87.8535" stroke="#DD0A15" stroke-width="1.3" stroke-linecap="round" stroke-linejoin="round"/>
<path d="M110.299 90.9725H103.799L98.7188 80.8125" stroke="#DD0A15" stroke-width="1.3" stroke-linecap="round" stroke-linejoin="round"/>
<path d="M121.876 90.9638H117.796L114.926 79.6738" stroke="#DD0A15" stroke-width="1.3" stroke-linecap="round" stroke-linejoin="round"/>
<path d="M121.875 74.8535V87.8535" stroke="#DD0A15" stroke-width="1.3" stroke-linecap="round" stroke-linejoin="round"/>
<path d="M121.306 90.9825H123.826L123.676 89.8725C123.591 89.3013 123.304 88.7796 122.866 88.4025C122.435 88.0233 121.88 87.8137 121.306 87.8125H120.496" stroke="#DD0A15" stroke-width="1.3" stroke-linecap="round" stroke-linejoin="round"/>
<path d="M110.306 90.9825H112.826L112.676 89.8725C112.591 89.3013 112.303 88.7796 111.866 88.4025C111.435 88.0233 110.88 87.8137 110.306 87.8125H109.496" stroke="#DD0A15" stroke-width="1.3" stroke-linecap="round" stroke-linejoin="round"/>
<path d="M97.6459 90.9825H100.166L100.016 89.8725C99.9375 89.2985 99.6532 88.7726 99.2159 88.3925C98.7778 88.0194 98.2214 87.8138 97.6459 87.8125H96.8359" stroke="#DD0A15" stroke-width="1.3" stroke-linecap="round" stroke-linejoin="round"/>
<path d="M105.176 65.2835V64.9335C105.264 63.6893 105.821 62.5249 106.734 61.675C107.647 60.8251 108.848 60.3529 110.096 60.3535H113.156C114.291 60.3572 115.39 60.7505 116.269 61.4678C117.148 62.185 117.754 63.1827 117.986 64.2935" stroke="#DD0A15" stroke-width="1.3" stroke-linecap="round" stroke-linejoin="round"/>
<path d="M105.176 90.3134V70.7734" stroke="#DD0A15" stroke-width="1.3" stroke-linecap="round" stroke-linejoin="round"/>
<path d="M111.525 87.8434C111.017 86.6796 110.871 85.3902 111.104 84.1421C111.338 82.894 111.941 81.7448 112.835 80.8434C113.421 80.2439 114.122 79.7678 114.895 79.4434" stroke="#DD0A15" stroke-width="1.3" stroke-linecap="round" stroke-linejoin="round"/>
<path d="M104.886 82.2337H104.266C103.176 82.2424 102.095 82.0351 101.086 81.6237C100.076 81.2181 99.1579 80.6159 98.3836 79.8519C97.6094 79.0879 96.9948 78.1775 96.5758 77.1737C96.151 76.1741 95.93 75.0998 95.9258 74.0137" stroke="#DD0A15" stroke-width="1.3" stroke-linecap="round" stroke-linejoin="round"/>
</g>
<path d="M91.0589 87.8623C90.9727 87.0765 90.5996 86.35 90.0109 85.8222C89.4223 85.2945 88.6595 85.0025 87.8689 85.0023C87.4312 85.001 86.9983 85.0931 86.5989 85.2723C86.9708 84.3718 87.0375 83.3743 86.789 82.4323C86.5843 81.6807 86.1817 80.9979 85.623 80.4551C85.0644 79.9123 84.3703 79.5295 83.6131 79.3466C82.856 79.1637 82.0636 79.1875 81.3188 79.4154C80.574 79.6433 79.9041 80.067 79.3789 80.6423C79.0982 79.4241 78.379 78.3519 77.3585 77.6299C76.3379 76.908 75.0874 76.5869 73.8453 76.7278C72.6031 76.8687 71.4563 77.4618 70.6234 78.394C69.7904 79.3261 69.3297 80.5322 69.3289 81.7823V82.0423C68.6866 82.0889 68.0606 82.2658 67.4889 82.5623C66.9168 82.8597 66.4109 83.2701 66.0019 83.7685C65.5928 84.267 65.289 84.8432 65.1089 85.4623C64.9294 86.0821 64.8784 86.7321 64.9589 87.3723C64.9589 88.2823 65.7889 91.4423 68.6489 91.4423H87.4789C87.9446 91.442 88.406 91.3538 88.8389 91.1823C89.7075 90.8211 90.3977 90.1308 90.7589 89.2623C90.9391 88.8319 91.0276 88.3688 91.0189 87.9023L91.0589 87.8623Z" fill="white" stroke="#DD0A15" stroke-width="1.57" stroke-linecap="round" stroke-linejoin="round"/>
<path d="M108.224 84.5322C108.222 82.8834 107.629 81.29 106.552 80.0419C105.474 78.7939 103.985 77.9742 102.354 77.7322C102.195 76.009 101.462 74.3889 100.273 73.1322C99.083 71.8755 97.5057 71.0549 95.7938 70.8022C94.0698 70.5337 92.3059 70.8618 90.7938 71.7322C89.2937 72.5924 88.1249 73.9302 87.4738 75.5322C86.7206 74.9929 85.859 74.6241 84.9489 74.4514C84.0389 74.2787 83.1021 74.3063 82.2037 74.5322C81.3073 74.7538 80.4708 75.1703 79.7538 75.7521C79.0319 76.3322 78.445 77.0624 78.0338 77.8921H77.8438V78.0021C78.5913 78.684 79.1143 79.5767 79.3438 80.5621C79.8663 79.983 80.5371 79.5577 81.2838 79.3322C82.027 79.1041 82.8179 79.0799 83.5738 79.2621C84.1884 79.4099 84.7636 79.6895 85.2595 80.0817C85.7553 80.4738 86.16 80.9692 86.4454 81.5333C86.7308 82.0974 86.8901 82.7168 86.9122 83.3486C86.9344 83.9804 86.8189 84.6094 86.5738 85.1921C86.9731 85.0129 87.406 84.9209 87.8438 84.9222C88.6343 84.9224 89.3971 85.2143 89.9857 85.7421C90.5744 86.2698 90.9476 86.9963 91.0338 87.7822C91.0327 88.2478 90.9445 88.709 90.7737 89.1421C90.4125 90.0107 89.7223 90.7009 88.8538 91.0621C88.4206 91.2329 87.9593 91.3211 87.4937 91.3221H101.494C103.283 91.3195 104.998 90.6075 106.264 89.3422C107.529 88.0769 108.241 86.3615 108.244 84.5721C108.244 84.5721 108.224 84.6022 108.224 84.5322Z" fill="white" stroke="#DD0A15" stroke-width="1.57" stroke-linecap="round" stroke-linejoin="round"/>
<path d="M24.9531 91.6172V45.6172" stroke="#DD0A15" stroke-width="1.57" stroke-linecap="round" stroke-linejoin="round"/>
<path d="M37.0175 79.5281C31.4275 78.8381 26.8575 76.0381 24.9375 72.3281" stroke="#DD0A15" stroke-width="1.57" stroke-linecap="round" stroke-linejoin="round"/>
<path d="M34.8775 70.2581C30.2775 69.6781 26.5175 67.3781 24.9375 64.3281" stroke="#DD0A15" stroke-width="1.57" stroke-linecap="round" stroke-linejoin="round"/>
<path d="M33.5275 62.0781C29.6675 61.5981 26.5275 59.6681 25.1875 57.0781" stroke="#DD0A15" stroke-width="1.57" stroke-linecap="round" stroke-linejoin="round"/>
<path d="M31.2975 55.7572C28.4775 55.4072 26.1575 53.9972 25.1875 52.1172" stroke="#DD0A15" stroke-width="1.57" stroke-linecap="round" stroke-linejoin="round"/>
<path d="M29.1094 49.2891C28.2738 49.1762 27.4764 48.8685 26.7816 48.3908C26.0868 47.9131 25.514 47.2788 25.1094 46.5391" stroke="#DD0A15" stroke-width="1.57" stroke-linecap="round" stroke-linejoin="round"/>
<path d="M12.9375 79.5281C18.5175 78.8381 23.0975 76.0381 25.0175 72.3281" stroke="#DD0A15" stroke-width="1.57" stroke-linecap="round" stroke-linejoin="round"/>
<path d="M15.0781 70.2581C19.6681 69.6781 23.4381 67.3781 25.0181 64.3281" stroke="#DD0A15" stroke-width="1.57" stroke-linecap="round" stroke-linejoin="round"/>
<path d="M16.4297 62.0781C20.2897 61.5981 23.4297 59.6681 24.7697 57.0781" stroke="#DD0A15" stroke-width="1.57" stroke-linecap="round" stroke-linejoin="round"/>
<path d="M18.6484 55.7572C21.4784 55.4072 23.7984 53.9972 24.7684 52.1172" stroke="#DD0A15" stroke-width="1.57" stroke-linecap="round" stroke-linejoin="round"/>
<path d="M20.8828 49.2891C21.7184 49.1762 22.5158 48.8685 23.2106 48.3908C23.9054 47.9131 24.4782 47.2788 24.8828 46.5391" stroke="#DD0A15" stroke-width="1.57" stroke-linecap="round" stroke-linejoin="round"/>
<path d="M220 92.4609H0" stroke="#DD0A15" stroke-width="1.57" stroke-miterlimit="10"/>
</svg>
